<?xml version="1.0" encoding="utf-8"?>
<!-- Generator: Adobe Illustrator 18.1.1, SVG Export Plug-In . SVG Version: 6.00 Build 0)  -->
<svg version="1.1" id="Layer_1" xmlns="http://www.w3.org/2000/svg" xmlns:xlink="http://www.w3.org/1999/xlink" x="0px" y="0px"
	 viewBox="0 0 600 421.2" enable-background="new 0 0 600 421.2" xml:space="preserve">
<g>
	<path fill="#575756" d="M286.8,51c4.2,5.8,10,15.4,10.4,25.3c0.1,1.9-0.7,4-0.8,6.2c-0.1,3.6,2,8.6-1.2,10.8
		C293.9,78.3,290.9,64.1,286.8,51"/>
	<path fill="#575756" d="M310,51c0.5-0.1,0.7,0.1,0.8,0.4c-4.3,12.8-7,27-8.3,41.8c-3.2-2.1-1.1-6.9-1.2-10.4
		c-0.1-2.2-0.9-4.3-0.8-6.2C300.7,66.8,306.8,57.8,310,51"/>
	<path fill="#575756" d="M317.5,53.9c0.1,7.5-3.7,14.4-5.4,21.1c-0.2,0.8,0.3,2.1,0,2.9c-0.2,0.6-1.1,0.6-1.2,1.2
		c-0.6,2.3-1.8,6-1.7,8.3c0.2,4.3,5.3,9.1,0.4,12.4c-1.4-1.1-1-5.8-0.4-7.5c-3.9,1.1-1.4,8.2-2.5,11.2c-2.5-1-2.1-5.1-2.1-7.9
		C304.9,80.6,310.7,63.6,317.5,53.9"/>
	<path fill="#1D1D1B" d="M218.4,54.3c1.6-0.3,1.6,2,0,1.7V54.3z"/>
	<path fill="#575756" d="M280.6,56.4c8.8,7.8,9.2,23.9,12,37.7c-3.1-1.4-3.2-5.6-5-8.3C286.3,75.2,282.5,65,280.6,56.4"/>
	<path fill="#575756" d="M323.7,61c-0.6,11.7-7.3,20.9-10.4,31.5c-1.1-0.4-1-2-2.1-2.5C313.6,78.5,318.3,69.4,323.7,61"/>
	<path fill="#575756" d="M274.4,61.8c7.5,6.6,10.3,20,12,31.1c0.7,0.8,1.3-0.1,1.7-0.8c1.8,1.3,2.9,5.3,1.7,8.3
		c-2.1-1.1-1.7-4.6-3.7-5.8c-1.2,3.1,1.7,5.7,2.9,7.9c-0.9,2.8,0.1,4.4,0.8,6.6c-2.2-0.9-2.7-3.6-5-4.6c1.2-6.2-3.3-13.5-3.7-20.7
		c0.1-1.5-1.4-1.4-1.7-2.5C279.2,73.3,275.9,68.3,274.4,61.8"/>
	<path fill="#575756" d="M329.5,68c0.5-0.1,0.7,0.1,0.8,0.4c-2.4,14.6-10.6,23.4-13.7,37.3c-2,0.1-1.8-2.1-3.7-2.1
		c3.9-4.7,3.7-11.9,5.8-17.8c1.4-3.9,4.4-6.6,5-10.4C326,73.4,327.4,70.3,329.5,68"/>
	<path fill="#575756" d="M262.8,81.7c8.3,4.7,11.9,14.1,16.2,22.8c0.4,7.6,3.6,14.6,4.1,23.6c0.5,7.6-0.7,16-1.7,24
		c-2.1-4.7-0.1-11,0-16.6c0.1-11.4-4.4-21.9-6.6-31.1C271,96.6,265,91,262.8,81.7"/>
	<path fill="#575756" d="M338.6,82.5c-14.6,12.7-21.3,35.1-22.4,58.8c-1.2-23.5,1.9-50.8,20.7-59.7
		C338.1,81.4,337.8,82.5,338.6,82.5"/>
	<path fill="#575756" d="M257.4,87.1c1.7,2.2-0.9,6.7-1.2,9.5c-2.3-1.1-0.7-3.7-2.1-5.4C254.5,89.1,256.5,88.7,257.4,87.1"/>
	<path fill="#575756" d="M339.8,87.5c2.2,1.4,2.1,5.1,2.5,8.3C340.2,94.1,338.6,90,339.8,87.5"/>
	<path fill="#575756" d="M250.3,88.7h1.2c0.5,3,3,8.1,0.8,9.9c-2-1.4-1.6-5-3.3-6.6C249.3,90.7,250.3,90.2,250.3,88.7"/>
	<path fill="#575756" d="M262.3,88.7c3.2,3.8-2.3,6.9-3.3,10.4C257.8,95.1,260.3,91.6,262.3,88.7"/>
	<path fill="#575756" d="M345.2,88.7c1.6,0.8,0.5,5.7-0.8,6.2C344.9,93,343.4,89.2,345.2,88.7"/>
	<path fill="#575756" d="M336.1,90.8c2.3,2.2,1.5,4.9,3.3,7.5c-1.9-1.5-5.4-3.4-5-5.8c1.6-0.5,1,1.2,2.1,1.2
		C337.6,93.1,334.7,91.8,336.1,90.8"/>
	<path fill="#575756" d="M349.4,90.8c2.7,1.9-0.1,6.3-2.5,7C346.6,95.9,348.4,92.8,349.4,90.8"/>
	<path fill="#575756" d="M246.2,92.4c2.4,1.8,3.2,5.1,3.7,8.7C247.6,99.3,245.6,97.2,246.2,92.4"/>
	<path fill="#575756" d="M264.8,92.9c4,2.6-0.6,7.3-2.9,8.7C260.4,97.8,264.5,96.2,264.8,92.9"/>
	<path fill="#575756" d="M352.3,95.8c0.3,0.2,0.7,0.4,1.2,0.4c0.8,3.4-2.5,7.1-4.1,4.1C350.4,98.9,351.3,97.3,352.3,95.8"/>
	<path fill="#575756" d="M332.4,96.6c2.8,0.9-0.8,2.7-1.7,3.7C329,98.4,332.4,98.2,332.4,96.6"/>
	<path fill="#575756" d="M300.9,99.5c-1.6,0.2-1.5,0.5-2.5-0.4C298.2,97,301.5,96.9,300.9,99.5"/>
	<path fill="#575756" d="M244.1,97.8c1.8,1.5,3.7,4.3,2.9,7C244.2,104.5,242.9,100.8,244.1,97.8"/>
	<path fill="#575756" d="M292.6,97.8c1.5,2.7,0.6,7.7,3.3,9.1c-0.3,2.2-0.3,4.6-2.1,5.4c1,8.6,1.8,17.2,1.7,25.3
		c-0.4,20.2-7.6,37.5-14.9,53c3.6-13,9.2-24,11.2-40.2c1.5-12.2,1.6-25.7,0.4-38.5c-0.1-1.7,0.6,0.1,1.7-0.4
		c-0.2-1.8,0.4-4.3-0.4-5.4c-0.4-1.1-0.8,1.1-2.1,0.4C290.5,102.3,291.1,101.1,292.6,97.8"/>
	<path fill="#575756" d="M268.1,98.2c0.9,0.9,1.7,1.9,2.1,3.3c-2.4,0.7-3,3.1-5.4,3.7c0-0.7-0.3-1.1-0.8-1.2
		C264.6,101.3,267.2,100.6,268.1,98.2"/>
	<path fill="#575756" d="M284.3,189.8c3.3-13.1,11.7-26.1,13.3-44.3c0.9-10.2-1.6-21-0.8-31.5c0.2-2,1.5-3.9,1.2-6.2
		c-0.3-3-3.9-5.2-2.5-8.7c0.5-1.6,2.5,1.8,3.3,2.5c-1.1,17.5,1.6,34.9-0.4,52.2C296.8,167.7,288.1,178.9,284.3,189.8"/>
	<path fill="#575756" d="M334,98.2c2,0-0.2,3-0.8,1.7C332.7,98.6,334.5,99.6,334,98.2"/>
	<path fill="#575756" d="M342.7,98.7c0.2,1.7-1.1,2-2.5,2.1C339.8,98.8,341,98.4,342.7,98.7"/>
	<path fill="#575756" d="M259.4,104.5c-1.3-0.6-2.3-1.6-2.5-3.3h-1.7c-1.1,0.7-0.9,2.7-2.1,3.3c-1.3-0.2-1.5-1.5-1.7-2.9
		C254.3,98.5,259.7,98.5,259.4,104.5"/>
	<path fill="#575756" d="M335.7,99.5c0.6,0.4,1.3,0.6,1.2,1.7c-0.4,0-0.3,0.5-0.4,0.8c-1,0.1-1.3-0.7-2.1-0.8
		C334.6,100.3,335.6,100.3,335.7,99.5"/>
	<path fill="#575756" d="M345.6,99.9c2.3,1.5-2.1,2.2-1.2,5c-1.9,0.2-2.1-1.2-2.1-2.9C343.6,101.4,344.8,100.8,345.6,99.9"/>
	<path fill="#575756" d="M301.3,100.3c0.5-0.1,0.7,0.1,0.8,0.4c-0.4,9.4,0.1,20.6,0,31.1c-2.1-1.4-1.9-5.4-2.1-8.3
		c-0.4-7.6,0.3-16.2,0-22.4C300.4,100.8,301.2,100.9,301.3,100.3"/>
	<path fill="#575756" d="M270.2,103.2c1.8,0.4,2.5,1.9,2.5,4.1c-2.1-0.3-3.3,2.4-5.8,2.9C264.8,107.4,269.5,105.8,270.2,103.2"/>
	<path fill="#575756" d="M250.3,103.6c0.7,0.6,1.1,1.4,1.2,2.5c-1.5,0.2-1.5,1.9-3.3,1.7C248.2,105.6,249.2,104.6,250.3,103.6"/>
	<path fill="#575756" d="M355.2,104.5c-0.4,1.2-2.2,2.5-3.3,1.7C352.1,104.6,353.9,102.6,355.2,104.5"/>
	<path fill="#575756" d="M258.2,107.4c-1.3,0.1-1.5,1.3-3.3,0.8c0.4-1.7-1.2-1.2-0.8-2.9C256.1,103.7,258.3,104,258.2,107.4"/>
	<path fill="#575756" d="M341.5,104c-0.1,0.9,0.1,1.6,0.8,1.7c-0.7,1.1-1,2.6-2.9,2.5c0.4-1.3-0.7-1.3-0.8-2.1
		C338.9,104.7,339.6,103.9,341.5,104"/>
	<path fill="#575756" d="M242.5,104.5c1.6,1,4.6,3.3,2.5,5.4c-1.1,0-0.4-1.8-2.1-1.2C243.1,106.8,242.6,105.9,242.5,104.5"/>
	<path fill="#575756" d="M303.8,104.9h1.2c0.3,1.7,1.4,6.6-0.8,7C303.5,109.2,304.2,107.8,303.8,104.9"/>
	<path fill="#575756" d="M310.4,106.1c0.9-0.1,0.2,1.5,0.4,2.1C309,108.3,309.8,106.7,310.4,106.1"/>
	<path fill="#575756" d="M313.3,106.1c1.9,1.6,1.1,5.5,0.4,7.9C311.7,112.9,311.8,107.2,313.3,106.1"/>
	<path fill="#575756" d="M333.2,106.1c1.6-0.3,1.6,2,0,1.7C333.2,106.6,332.5,106.9,333.2,106.1"/>
	<path fill="#575756" d="M254.5,109.4c-0.4,1.7-1.9,2.2-3.3,2.9C247.8,109.7,253.1,104.9,254.5,109.4"/>
	<path fill="#575756" d="M258.6,107.4c0.6,0.4,1.3,0.6,1.2,1.7c-1.8-0.3-0.8,2.2-2.5,2.1C256.8,108.9,259,109.3,258.6,107.4"/>
	<path fill="#575756" d="M283.9,107.4h2.1c0.2,2.7,2.1,5.1,0.4,6.6C284.8,112.5,284.1,110.2,283.9,107.4"/>
	<path fill="#575756" d="M336.1,107.4c1.9-0.5,1.3,1.5,2.5,1.7c-0.5,1.3-0.8,2.8-2.9,2.5C335.4,109.7,336.4,109.2,336.1,107.4"/>
	<path fill="#575756" d="M329.1,108.6c0,1.1-1.4,0.8-2.5,0.8C326.6,107.7,328.2,107.5,329.1,108.6"/>
	<path fill="#575756" d="M354.7,108.2c1.7,0.2,3,0.9,3.3,2.5c-1.9-0.7-3.8,1.2-5.4,2.1C351.6,111,354,109.5,354.7,108.2"/>
	<path fill="#575756" d="M310,109c0.5-0.1,0.7,0.1,0.8,0.4c-2.4,17.2-1,34.3,1.7,51.8c-2.1-2.4-2-6.3-2.5-9.9
		C308.2,139.1,307.7,120.9,310,109"/>
	<path fill="#575756" d="M275.2,113.2c-3.3,0.1-4.7,2.2-7.5,2.9c0.3-1.4-0.6-1.6-0.4-2.9C269.8,111.2,274.5,106.9,275.2,113.2"/>
	<path fill="#575756" d="M241.2,109.8c1.6,1.1,2.8,2.4,3.3,4.6c-1.3-0.3-1.5,0.4-2.5,0.4C241.1,113.8,241.1,111.9,241.2,109.8"/>
	<path fill="#575756" d="M334,112.3c2.7-0.1,3.5,1.8,4.6,3.3c-0.3,1.5-1,2.6-2.5,2.9c0-1.4,1.2-1.6,0.8-3.3
		c-0.1-0.3-0.4-0.4-0.4-0.8c-2-0.1-3.6,0.3-4.1,1.7c-1.2-0.9,0.7-2.3,0.8-3.3c0.3-1.8-2.2-0.8-2.1-2.5
		C332.3,109.4,334.6,110.2,334,112.3"/>
	<path fill="#575756" d="M247.8,110.7c1,1,2.5,1.4,2.5,3.3c-1.8-0.6-0.9,1.6-2.5,1.2C246.4,113.8,247.4,112.4,247.8,110.7"/>
	<path fill="#575756" d="M339.4,111.5c1.3,0.4,3,4.3-0.4,3.7C339.1,113.9,338.7,112.2,339.4,111.5"/>
	<path fill="#575756" d="M256.1,111.9c-0.4,1.7-1.3,2.9-2.9,3.3C252.2,113.6,254.2,112,256.1,111.9"/>
	<path fill="#575756" d="M324.9,113.6c4.5-0.8,4.8,2.6,6.2,5c-1.7,1.1-2.4-1.9-4.6-1.7c1.9-1.1-0.7-1.2-1.7-1.7V113.6z"/>
	<path fill="#575756" d="M358.1,114.4c1.1,0.8,2,1.9,2.5,3.3c-1.5,0-2.4,0.6-3.7,0.8c-0.3-0.9-1.1-1.4-0.8-2.9
		C357,115.6,357.4,114.9,358.1,114.4"/>
	<path fill="#575756" d="M239.1,115.2c1.8,0.3,1.1,3.1,2.5,3.7c-0.5,0.6-1.4,0.8-2.5,0.8C239.1,118,238.3,116.8,239.1,115.2"/>
	<path fill="#575756" d="M276,115.6c0.6,0.6,0.4,2.1,0.4,3.3c-0.3,0.7-2,0-2.1,0.8c-1.4-0.4-1.8-1.8-2.9-2.5
		C272.9,116.7,273.9,115.6,276,115.6"/>
	<path fill="#575756" d="M344.4,115.6c0.4,1.4,1.8,1.8,1.7,3.7c-1.3-0.1-1.9-0.9-2.9-1.2c-0.8,0.1-0.3,1.4-0.8,1.7
		c-1.2,0-1.5-0.9-2.1-1.7C340.4,116.1,341.9,115.4,344.4,115.6"/>
	<path fill="#575756" d="M250.3,116.1c0.5,1,0.6,2.4,0.8,3.7c-1.8,0.8-6.1,4.6-7,0.8C243.4,117.7,247.3,116.1,250.3,116.1"/>
	<path fill="#575756" d="M254.1,123.1c-0.5-0.6-0.5-1.7-1.2-2.1C255.4,112.1,264.4,122.4,254.1,123.1"/>
	<path fill="#575756" d="M272.7,123.1c-2-0.2-2.1,1.5-2.9,2.5c-1.6-1.1,0.5-5.3-2.1-6.2c-2.1,0.5-0.8,4.4-2.9,5
		c0.4,0.9,2.6,0.2,2.1,2.1c-1.3,0.7-2.9-1.3-4.6-1.7C260.3,114.7,272.2,115.6,272.7,123.1"/>
	<path fill="#575756" d="M353.5,124.8c0.3-2.1,1.3-3.3,0-5c-2.2-0.4-2.7,0.9-3.7,1.7c-0.5,2,1.3,1.7,0.8,3.7
		c-8.2-3.1,4.4-14,6.2-3.3C355.5,122.6,355.9,125.1,353.5,124.8"/>
	<path fill="#575756" d="M323.7,119.4c2.1,0,3.8,1.1,2.9,2.9c-0.9-0.3-2.1-0.4-2.9-0.8V119.4z"/>
	<path fill="#575756" d="M329.5,123.1c-0.9,1.5,0.2,1.9,0.8,2.9c2.7,0.1,4.8-0.5,4.6-3.3C332.5,123.1,332.1,123.6,329.5,123.1
		 M334.9,119.4c1,1.2,1.9,2.5,2.9,3.7c-0.2,1.7-1.5,2.3-2.1,3.7c-0.8,0.6-2.7-1.4-3.7,0.4C325.3,126.6,328,117.9,334.9,119.4"/>
	<path fill="#575756" d="M237.9,120.2c1.2,1.7,1.9,3.9,2.9,5.8c-0.8,0-0.5,1.1-1.7,0.8c-2-0.7-2.4-3.1-2.5-5.8
		C237,120.7,237.8,120.8,237.9,120.2"/>
	<path fill="#575756" d="M362.2,124.3c-1.9,0.5-2.9,1.8-5,2.1C356.4,121.8,362.2,118,362.2,124.3"/>
	<path fill="#575756" d="M277.3,121.4c-0.3,1.5,0.7,4.3-0.8,4.6c-2.4,0.3-1.6-2.5-2.1-4.1C274.9,121.3,276.2,121.4,277.3,121.4"/>
	<path fill="#575756" d="M345.6,121.9c0.4,3.2,5.5,4.9,4.1,11.2c-1.4,0.9-2.8,0.9-4.1,0c0-1.3,1.3-1.2,0.8-2.9
		c-0.7-1.1-2.4-1.1-2.9-2.5c-3.9,1.2-1.2,5.8,1.2,6.6c-3.6-0.1-5.4-2.5-7.9-2.5c-0.3-6.1,3.7-7.9,8.7-8.7V121.9z"/>
	<path fill="#575756" d="M334.9,122.7c0.2,2.9-1.8,3.4-4.6,3.3c-0.6-1-1.7-1.4-0.8-2.9C332.1,123.6,332.5,123.1,334.9,122.7"/>
	<path fill="#575756" d="M305,123.5c0.9,22.3,4.3,45.4,12.8,62.6c0.1,1.9-0.4,3.2-1.7,3.7c-0.5-1.7,0.7-1.8,0.8-2.9
		C309.2,169.8,303,148.1,305,123.5"/>
	<path fill="#575756" d="M312.5,123.6c2,5.4,0.3,12.3,0.8,19.5C311.1,137.7,313,130.7,312.5,123.6"/>
	<path fill="#575756" d="M326.6,126.8c-1.5-0.5-3.6-0.3-4.1-1.7C323.8,124.3,326.4,125.2,326.6,126.8"/>
	<path fill="#575756" d="M263.6,132.6c-1-0.2-2.1-0.4-2.1-1.7c-1.3,0.3,0.4,3.1-0.4,2.9c-1.9-1.2-1.9-3.4-1.7-5.8
		c-0.1-0.4-0.8-0.3-0.8-0.8c-2.4,0.5-1.5,4.3-3.7,5c0.9,1.5,4.1,0.6,4.1,2.9c-1.2,0.7-4,0-4.1-1.7c-1.5-0.4-1.2,1-2.5,0.8
		C249.7,124.7,265.5,122.3,263.6,132.6"/>
	<path fill="#575756" d="M235.4,126.4c0.4,1.6,2.2,1.9,2.9,3.3c-0.2,1.6-1.9,1.6-0.8,3.3C234.2,133.6,235.7,127.5,235.4,126.4"/>
	<path fill="#575756" d="M363.9,128.5c-0.3,1.9-3.9,1.7-5.4,1.2C359.4,128,362.7,126.4,363.9,128.5"/>
	<path fill="#575756" d="M278.5,131c-1.7,1.1-4-0.3-5-1.2C274.5,126.7,278.3,127.9,278.5,131"/>
	<path fill="#575756" d="M269.8,129.7c1.3,0.3,2.1,0.9,2.1,2.5C270.5,132,269.5,131.6,269.8,129.7"/>
	<path fill="#575756" d="M241.2,130.1c0.2,1.3-1.3,0.9-0.8,2.5c0.1,0.9,1-0.5,2.1,0c0.2,1.7-1.1,1.9-1.7,2.9
		C238.7,134.9,238.5,130.3,241.2,130.1"/>
	<path fill="#575756" d="M355.2,130.1c1-0.1,1.7,0.2,2.1,0.8c0.1,1.6-1.1,2-2.5,2.1C355.3,132.5,355.2,131.2,355.2,130.1"/>
	<path fill="#575756" d="M266.1,131c1.3,0.3,2.4,0.6,2.5,2.1C266.9,133.2,265.9,132.6,266.1,131"/>
	<path fill="#575756" d="M353.9,132.6c-1,0.1-1.6-0.1-2.1-0.4C352.1,130.9,354.3,130.4,353.9,132.6"/>
	<path fill="#575756" d="M365.9,133c-0.5,1-2.8,1.5-3.7,0.8C362.3,131.7,365.1,131.2,365.9,133"/>
	<path fill="#575756" d="M272.3,132.2c1.1-0.1,1.8,0.2,1.7,1.2c-0.4,0.3-0.9,0.4-1.7,0.4V132.2z"/>
	<path fill="#575756" d="M328.2,132.2c1.5-0.1,2.5,0.3,2.9,1.2c0,2.2-2.3,3-3.7,2.5C327.5,134.6,328.6,134.1,328.2,132.2"/>
	<path fill="#575756" d="M247,132.6h1.7c0.3,0.8,1.3,1.6,0.4,2.5C247.6,135.1,246.4,133.4,247,132.6"/>
	<path fill="#575756" d="M234.2,138c-0.3-1.4-0.3-3-1.2-3.7C235.4,132,238.2,137.4,234.2,138"/>
	<path fill="#575756" d="M277.3,133.5c1.3,0,1.6,0.9,2.5,1.2c-0.7,0.7-0.2,2.6-1.2,2.9C277.2,137.2,276.5,134.6,277.3,133.5"/>
	<path fill="#575756" d="M266.5,133.9v3.3c-0.4,0-0.3-0.5-0.4-0.8c-0.1-0.8-1.4-0.3-1.7-0.8C264.5,134.4,265.1,133.8,266.5,133.9"/>
	<path fill="#575756" d="M269.4,133.9c0.9-0.2,1.1,0.3,1.7,0.4c-0.2,0.9-0.6,1.6-2.1,1.2C268.9,134.8,269.5,134.7,269.4,133.9"/>
	<path fill="#575756" d="M352.3,134.3c0.6,1.3,0.1,1.8-1.7,1.7C350.6,134.9,351.2,134.3,352.3,134.3"/>
	<path fill="#575756" d="M244.1,137.6c0,1.1-2,1-2.5,0.4v-1.2C242.3,136.1,243.6,136.9,244.1,137.6"/>
	<path fill="#575756" d="M248.3,136.4c-0.1,1-0.3,1.9-1.7,1.7C246.4,136.7,247,136.2,248.3,136.4"/>
	<path fill="#575756" d="M250.3,136.4h1.2c0.1,1.1-0.2,1.8-1.2,1.7V136.4z"/>
	<path fill="#575756" d="M321.2,136.4h1.2c0.4,1,0.1,2.6,1.7,2.5c-0.4,0.9-2.3,0.1-2.5,1.2C320.1,139.3,321.3,138,321.2,136.4"/>
	<path fill="#575756" d="M236.7,136.8c1.3,0.1,0.9,2.2-0.4,2.1C236.1,137.9,236.3,137.3,236.7,136.8"/>
	<path fill="#575756" d="M365.9,136.8c-0.2,1,0.8,0.9,0.4,2.1c-0.9,0.9-2.8,0.3-3.3-0.4C363.6,137.5,364.1,136.5,365.9,136.8"/>
	<path fill="#575756" d="M272.3,137.6c1.1-0.1,1.1,0.9,1.2,1.7C272.1,139.6,271.5,138.4,272.3,137.6"/>
	<path fill="#575756" d="M253.6,150c2.8-1.5,4.5,0,7.5,0.4c-0.3-1.7-1.8-2.1-1.7-4.1c0.9-0.9,2.5-3.3,1.7-4.6
		C257.8,143.4,251.1,145.2,253.6,150 M261.5,152.1c-1.1-0.7-3.3-0.3-4.1-1.2c-1.3,0.2-1.5,1.6-2.9,1.7c0.2-2.8-1.8-0.8-2.9-2.1
		c-2.6-4.5,0.3-7.8,2.5-11.6c5.2-2.1,10.7,0.3,12.4,4.1c0.4,3-0.5,4.7-1.2,6.6C263.9,150.3,261.9,150.4,261.5,152.1"/>
	<path fill="#575756" d="M348.5,150.9c-2.2-0.5-2.8-1.6-5.4-0.8c0.5-1.7,1.6-2.8,4.1-2.5c0.4-4.6-2-6.3-6.2-6.2
		c-0.4,0.1-0.3,0.8-0.8,0.8c1.5,2.5,3.9,5.7,0.8,8.3c-2.1-1.6-4.1-1.6-6.2-2.5c0.3-4.7,1.4-6.8,4.1-9.5
		C347.1,136,352.9,144.7,348.5,150.9"/>
	<path fill="#575756" d="M269,138.4c0.7,0.1,0.9,0.7,0.8,1.7h-1.2C268.4,139.2,268.8,139,269,138.4"/>
	<path fill="#575756" d="M276.8,138.4c1.2,0.6,1.7,3.6,1.2,4.6C276.4,142.6,275.3,139.7,276.8,138.4"/>
	<path fill="#575756" d="M355.2,138.8c0.4,1.7-2.5,1.7-2.1,0C353.9,138.1,354.1,138.8,355.2,138.8"/>
	<path fill="#575756" d="M331.1,141.3c0.6,1.9,0.3,3.4-0.8,4.6c-1.2-0.3-1.7-1.4-2.5-2.1c-1.5,0.4-1.9,1.9-4.1,1.7v1.7
		c1.5,0.5,2.4,1.4,3.7,2.1c1.3-0.3,2.4-0.6,2.5-2.1c1,5-7.8,3.3-8.3-0.4C321.7,142.7,325.9,140.1,331.1,141.3"/>
	<path fill="#575756" d="M365.9,143c-1-0.4-2.9,0.1-2.9-1.2C364.4,141.6,366.2,140.6,365.9,143"/>
	<path fill="#575756" d="M261.1,141.7c0.8,1.3-0.8,3.6-1.7,4.6c-0.1,2.1,1.4,2.5,1.7,4.1c-2.9-0.5-4.6-1.9-7.5-0.4
		C251.1,145.2,257.8,143.4,261.1,141.7"/>
	<path fill="#575756" d="M355.2,147.1c1.7,3.7,6.1,2.3,7-1.2c-2.5-0.1-4.1-0.4-5.8-2.1C356.5,145.4,354.9,145.4,355.2,147.1
		 M360.1,141.7c1.5,2.2,4,4.7,2.9,8.3c-3.3,0.3-7.8,2.2-10.4-1.2C351.7,142.9,357.2,143.7,360.1,141.7"/>
	<path fill="#575756" d="M240,150.4c1-0.1,1.3,0.7,2.1,0.8c1-0.9,2.3-1.5,2.1-3.7C242.2,146.1,239.6,147.3,240,150.4 M237.9,151.3
		c-0.3-1.4-0.9-2.3-0.8-3.3c0.6-10.8,18.4,0.1,7.9,3.3c-1.5,0.5-1.8,1.6-2.5,1.7C240.7,153,240,151,237.9,151.3"/>
	<path fill="#575756" d="M356.4,143.8c1.7,1.6,3.3,2,5.8,2.1c-1,3.5-5.3,4.9-7,1.2C354.9,145.4,356.5,145.4,356.4,143.8"/>
	<path fill="#575756" d="M244.1,147.5c0.3,2.2-1,2.8-2.1,3.7c-0.8-0.2-1-0.9-2.1-0.8C239.6,147.3,242.2,146.1,244.1,147.5"/>
	<path fill="#575756" d="M313.7,149.6c0.6,0.9,0.7,2.3,0.8,3.7C313.2,153.2,313.9,151,313.7,149.6"/>
	<path fill="#575756" d="M321.6,150c-1.3,2.1-3.1,5.6-5,5.8C318,153.6,318.1,150.2,321.6,150"/>
	<path fill="#575756" d="M350.2,151.7c0.7-0.1,0.7,0.4,1.2,0.4c-0.2,0.6-0.6,1-0.8,1.7C349.5,153.7,349.6,152.2,350.2,151.7"/>
	<path fill="#575756" d="M365.9,151.7c1.1-0.1,1.4,0.6,1.2,1.7h-1.2V151.7z"/>
	<path fill="#575756" d="M342.3,152.1c-0.1,1.7-1.8,1.8-2.5,0.8C339.9,151.9,341.2,152.1,342.3,152.1"/>
	<path fill="#575756" d="M252,152.9c0.1,1.3-1.5,1-2.1,1.7c-0.1,1,0.2,1.7,0.8,2.1c-0.1,0.9-1,0.9-2.1,0.8c-0.2,2.1-0.6,4.1-1.7,5.4
		c-1.7-0.2-1.2-0.2-2.9,0c0.4-3,1.3-5.9,2.9-8.7C249.3,154.5,250.2,151.8,252,152.9"/>
	<path fill="#575756" d="M277.7,152.5c2.1,0.5,3.6,1.7,3.7,4.1C280,155.4,278.3,154.5,277.7,152.5"/>
	<path fill="#575756" d="M322.8,152.5c0.7-0.1,0.7,0.4,1.2,0.4c-0.1,4.3-3.8,5-3.3,9.9c1.1,0.1,1.4-0.6,1.2-1.7
		c2.7,1.6-2.1,3.5-3.7,2.1C317.9,157.8,321.4,156.2,322.8,152.5"/>
	<path fill="#575756" d="M239.6,155.4c-3.4,1-5.6,3.3-5.8,7.5C229.6,159.9,237.7,149.9,239.6,155.4"/>
	<path fill="#575756" d="M329.1,154.2c-0.3,1.3-0.6,2.4-2.1,2.5C326.9,155.1,327.8,154.4,329.1,154.2"/>
	<path fill="#575756" d="M335.7,154.2c2.1,1.4,0.2,5.6-2.1,5.4C333.8,157.2,335.7,156.7,335.7,154.2"/>
	<path fill="#575756" d="M348.1,154.2c1.6,2,5.5,3.5,4.1,7c-1.9-0.1-1.9-1.9-2.5-3.3c-1.3-0.2-1.3,0.9-1.2,2.1
		c-1.9-3-5.2-0.1-7.9-1.7v-2.1C343.4,155.8,346.7,156.7,348.1,154.2"/>
	<path fill="#575756" d="M272.3,162c-0.5,0.1-0.7,0.7-1.2,0.8c-2.3-1.7-3.3-4.7-5-7C270.5,152.1,271.5,158.5,272.3,162"/>
	<path fill="#575756" d="M276.8,154.6c0.5,3.2,3.9,5.7,2.5,9.5c-5.5,0.7-2.4-7.3-6.2-8.3c-0.1-0.5,0.1-0.7,0.4-0.8
		C274.1,154.4,275.7,154.6,276.8,154.6"/>
	<path fill="#575756" d="M332.4,154.6c0.6,1.6-1.9,4.4-0.4,7c-1.1,0-1.5,0.8-2.1,1.2C329.7,160.8,330.7,156.2,332.4,154.6"/>
	<path fill="#575756" d="M352.3,154.6c1.1,0.6,1.9,1.6,1.2,2.9C352.3,157.3,351.5,155.4,352.3,154.6"/>
	<path fill="#575756" d="M253.2,155c2.1,3,7,1.9,9.9,0.4c0.1,2.5,2.3,3,3.3,4.6c-3.3,1.2-8-1.3-12.8-0.4
		C252.9,158.7,252.3,156.2,253.2,155"/>
	<path fill="#575756" d="M244.1,155.8c-0.6,0.7-0.7,2.1-2.5,1.7c-0.3,2.8-1.9,4.2-3.3,5.8c-0.7,0.1-0.9-0.5-1.7-0.4
		C237.7,159.1,239.1,155.7,244.1,155.8"/>
	<path fill="#575756" d="M316.2,156.2c1.4,0.2,0.6,1.6,0.4,2.5C315.5,158.7,315.6,156.8,316.2,156.2"/>
	<path fill="#575756" d="M360.1,157.1c1.2,0.1,0.5,2,2.1,1.7c-0.1,1.3,0.3,3-0.4,3.7c-1.8,0.3-2.6-0.4-2.5-2.1
		c0.4,0.3,0.4,1,1.2,0.8c0.5-0.1,0.3-0.8,0.8-0.8C361.5,158.8,359.9,158.8,360.1,157.1"/>
	<path fill="#575756" d="M326.2,157.9c0.2,1.7,1.1,5.2-1.2,5.4C324.6,160.8,325.3,159.3,326.2,157.9"/>
	<path fill="#575756" d="M353.9,159.1c1.3,0.5,2.8,0.8,2.5,2.9C354.8,161.9,354.1,160.7,353.9,159.1"/>
	<path fill="#575756" d="M363.9,160c1.1-0.1,1.8,0.2,1.7,1.2c-0.4,0.3-0.9,0.4-1.7,0.4V160z"/>
	<path fill="#575756" d="M341.1,160.4c0.8,1-0.5,2.6-2.5,2.1C338.4,160.7,339.6,160.5,341.1,160.4"/>
	<path fill="#575756" d="M312.5,161.6c1.7-0.2,0.5,2.6,0.8,3.7C311.9,165.2,312.7,163,312.5,161.6"/>
	<path fill="#575756" d="M262.3,163.7c-0.8-0.2-2.5,0.6-2.1-0.8C260.9,162.2,262.6,162.3,262.3,163.7"/>
	<path fill="#575756" d="M302.1,164.1c-0.1,1.1-0.6,1.6-1.7,1.7C300.3,164.5,300.8,163.9,302.1,164.1"/>
	<path fill="#575756" d="M316.2,164.1c1.5,0,1.8,1.2,1.7,2.9C317.3,166,316.1,165.8,316.2,164.1"/>
	<path fill="#575756" d="M266.9,164.9c1.7,2,2.9,6.8,2.5,9.5C267.4,172.1,267.5,167.7,266.9,164.9"/>
	<path fill="#575756" d="M269.4,164.9c1.4-0.3,1.5,1.5,0.8,2.1C269.3,167,269.3,166,269.4,164.9"/>
	<path fill="#575756" d="M325.7,165.8c0.1,1-0.1,1.6-0.4,2.1C324.1,167.8,324.2,165.4,325.7,165.8"/>
	<path fill="#575756" d="M327.4,165.8c1.7,1.8-0.6,6.5-1.2,9.5C324.2,173,327.6,169,327.4,165.8"/>
	<path fill="#575756" d="M313.3,166.2c1.4,0.2,1,2,1.2,3.3C313.8,168.7,313.2,167.8,313.3,166.2"/>
	<path fill="#575756" d="M266.5,203.9c-2.7-0.6-1.2-5.4-3.7-6.2c-3-9-8.1-15.9-12-24c1.7-3-2.1-4.6-1.2-6.6c1-1,0.8,0.6,2.1,0.4
		C255.9,180.2,266.5,188.1,266.5,203.9"/>
	<path fill="#575756" d="M257.4,167c3.9,6.8,10.4,14.8,9.1,24c-3-6.8-6.2-13.5-9.9-19.5C257.1,169.5,256.3,168.1,257.4,167"/>
	<path fill="#575756" d="M344.8,167.4c0.5,0.1,0.7,0.7,1.2,0.8c-0.8,2.1-2.8,3.4-1.7,6.2c-3.9,8.1-9,15.1-12,24
		c-2.5,0.8-1,5.6-3.7,6.2C329.2,188.8,339.1,179.5,344.8,167.4"/>
	<path fill="#575756" d="M263.2,167.8c2.3,2,4.4,6.3,3.7,9.9C264.5,175.7,262.2,172,263.2,167.8"/>
	<path fill="#575756" d="M273.1,167.8c0,1.3-0.9,1.6-1.2,2.5C270.2,169.8,271.6,167.7,273.1,167.8"/>
	<path fill="#575756" d="M337.3,167.8c3.8,6.5-7.4,16.1-8.3,24C326.5,183.2,334.3,175,337.3,167.8"/>
	<path fill="#575756" d="M322,168.7c1.4,0,2.6,1.4,1.7,2.5C322.7,170.7,322.2,169.9,322,168.7"/>
	<path fill="#575756" d="M331.1,168.7c2.9,2.8-0.8,8.2-2.9,9.9C327.1,174.8,330.1,171.8,331.1,168.7"/>
	<path fill="#575756" d="M235,169.5c0.7-0.1,0.7,0.4,1.2,0.4c4.7,13,13.5,22.3,19.5,34c3.2,6.3,6.3,12.7,8.7,19.9
		c-2.4-1.1-3.5-3.4-5.4-5c-1.5-9.4-10.3-15.5-13.3-23.2c-0.5-1.4,0.5-2.4,0-4.1c-0.4-1.7-2.5-3.2-2.5-5.4c-0.8,0.6-0.2,2.5-0.8,3.3
		c-1.1-2.9-4.7-6.8-3.3-9.5c-0.4-1.6-2.1-2-3.3-2.9C236.2,173.8,235.2,172.1,235,169.5"/>
	<path fill="#575756" d="M359.3,170.3c2,1.3-1,4.5,0,7.5c-1.2,0.8-2.5,1.4-3.3,2.5c1.7,3.3-2.5,6.2-2.9,9.9c-1-0.4-0.9-1.9-0.8-3.3
		c-0.7,1.9-1.9,3.3-2.9,5c-0.3,11.8-11.3,16.3-13.3,27.8c-1.7,1.6-3.1,3.5-5,5c-0.3-3.4,2.4-7.3,4.1-9.9
		C340.3,196.9,353.3,187.1,359.3,170.3"/>
	<path fill="#575756" d="M300.9,173.2c-0.7,0.8-2.1,0.9-3.7,0.8C297.5,172,299.7,172.5,300.9,173.2"/>
	<path fill="#575756" d="M297.6,174.5c0.3,1.8-0.9,2.1-2.1,2.5C294.8,175.6,295.8,174.5,297.6,174.5"/>
	<path fill="#575756" d="M297.6,178.2c1-0.1,1.3,0.7,2.1,0.8c0.3,1.3-1.1,0.8-0.8,2.1C297.2,181,297,179.4,297.6,178.2"/>
	<path fill="#575756" d="M266.9,179.9h1.2c0.1,1-0.1,1.6-0.4,2.1C267.1,181.6,266.8,180.9,266.9,179.9"/>
	<path fill="#575756" d="M306.3,179.9c1.8-0.5,1.1,1.4,2.1,1.7c-0.7,1.6-3.8,0.9-3.7,3.3c-1.3,0.4-0.9-1.1-1.7-1.2
		C304.5,182.8,306.4,182.3,306.3,179.9"/>
	<path fill="#575756" d="M302.1,180.3c0.2,2.3-2.6,2.9,0,4.1c0.1,1.5-2.4,2-3.3,1.2c0.1-0.9,1.5-0.4,1.7-1.2
		c0.1-0.7-0.4-0.7-0.4-1.2c-1.8-0.1-1.7,1.4-3.3,0.4C298.5,182.4,300.3,181.4,302.1,180.3"/>
	<path fill="#575756" d="M295.1,180.7c1.2-0.1,1.2,1,1.2,2.1C295,183,295,181.9,295.1,180.7"/>
	<path fill="#575756" d="M327,180.7h1.2c0.3,1.2-0.6,1.1-0.4,2.1C326.9,182.7,326.9,181.7,327,180.7"/>
	<path fill="#575756" d="M293.4,185.7c0.6,0.1,0.8,0.6,1.7,0.4v-1.2C294.1,184.7,293.5,184.9,293.4,185.7 M297.6,187.3
		c-3.1-0.8-3.2,0.3-6.6,0.4c-0.3-0.5-0.5-1.1-0.4-2.1C293.9,184.6,296.4,183.1,297.6,187.3"/>
	<path fill="#575756" d="M295.1,184.8v1.2c-0.9,0.2-1.1-0.3-1.7-0.4C293.5,184.9,294.1,184.7,295.1,184.8"/>
	<path fill="#575756" d="M304.6,185.2c1.3,0,2.2,0.5,2.5,1.7C305.7,186.9,304.3,186.9,304.6,185.2"/>
	<path fill="#575756" d="M300.5,188.1c-0.5,2.1-3.7,1.6-6.2,1.7c-2.4,1.8-4.9,3.4-7,5.4C288.2,191.3,294.7,187.2,300.5,188.1"/>
	<path fill="#575756" d="M273.5,188.1c1.1,0.4,1.9,3.2,0,3.3V188.1z"/>
	<path fill="#575756" d="M319.1,188.6c0,1.7-0.1,3.3-1.7,3.3C318.3,191.1,317.7,188.9,319.1,188.6"/>
	<path fill="#575756" d="M237.1,189c3.2,4.5,6.3,9.2,9.9,13.3c2.1,7.9,10.7,11.3,9.5,21.1c-3.6-6.2-8.3-11.3-10.4-19.1
		C242.8,199.5,238.4,195.8,237.1,189"/>
	<path fill="#575756" d="M302.5,189.4c2-0.9,6.3-0.5,6.6,1.7C306.4,191,305.3,189.4,302.5,189.4"/>
	<path fill="#575756" d="M357.6,189.8c-0.2,6-5.3,10.8-8.7,14.9c-1.6,8.2-7.1,12.5-9.9,19.5c-2.4-9.2,7.3-13.4,9.1-21.1
		C351.6,198.9,355.1,194.8,357.6,189.8"/>
	<path fill="#575756" d="M269.4,190.6c0.5,0,0.7,3.9,1.2,5.4C269.1,195.3,269.4,192.8,269.4,190.6"/>
	<path fill="#575756" d="M273.9,191.9c1.8,1.9,1.4,3.6,1.7,7C273.2,198.1,273.6,193.4,273.9,191.9"/>
	<path fill="#575756" d="M279.7,193.1c0.5,1,1.4,3.3-0.4,3.3C279,194.9,279.8,194.5,279.7,193.1"/>
	<path fill="#575756" d="M271.9,196c1.5,0.6,0.8,3.4,2.5,3.7c-2.1,1.6,0.3,6,0.8,8.7c-2.1,0-2.2-1.9-4.1-2.1
		C272.4,203.2,272.8,198.6,271.9,196"/>
	<path fill="#575756" d="M319.1,197.3h1.7c-1.5,5,3.9,7.8,0.4,10.8C321.3,204.4,319.3,201.7,319.1,197.3"/>
	<path fill="#575756" d="M241.2,206.8c4,3.4,6.4,8.5,9.5,12.8c-0.7,0.5-1.4,1.1-2.9,0.8C245.8,215,242.7,212,241.2,206.8"/>
	<path fill="#575756" d="M317.5,207.6c1.7-0.1,1.6,3-0.4,2.5C317.5,209.6,317.5,208.6,317.5,207.6"/>
	<path fill="#575756" d="M353.1,207.6c0.8,4.1-4.3,8.4-5.8,13.7c-1.5,0.3-2.2-0.3-2.9-0.8C347.1,216,350.3,212,353.1,207.6"/>
	<path fill="#575756" d="M283.5,208c-0.5,1.6,1.5,1.5,0.4,2.5c-0.5-0.8-1.8-1-2.1-2.1C282.2,208.1,282.8,208,283.5,208"/>
	<path fill="#575756" d="M283.9,214.3c-1.6,0.3-1.3-1.2-2.5-1.2C281.7,211.5,284.4,212.5,283.9,214.3"/>
	<path fill="#575756" d="M315.4,212.6c1.2-0.4,0.7,0.9,0.8,1.7H315C314.8,213.4,315.2,213.2,315.4,212.6"/>
	<path fill="#575756" d="M319.5,213.4c-0.3,1.5-0.5,2.9,1.7,2.9c0.3,1.7-1.7,1-1.7,2.5c-1.9-1.7-4.1-1-6.6-1.7
		c0-1.2,1.1-1.4,1.2-2.5c1.4,0.6,2.2,1.6,3.3,2.5c0.7,0,1.1-0.3,1.2-0.8c0-1.2-2-0.5-2.5-1.2C317.5,214.7,318.3,213.8,319.5,213.4"
		/>
	<path fill="#575756" d="M281,213.8c1,1.5,2.9,2.1,4.6,2.9c0.4,1.8-1.4,1.4-1.2,2.9c1.5,1.2,3.5,2,3.7,4.6c-0.7,0.4-0.7,1.5-1.7,1.7
		c-0.2,1.1,1.7,2.1,0.4,2.9c-1.5-0.6-1-3.2-2.1-4.1c-0.7,0.4-0.4,1.8-0.8,2.5c-1.7,0.2-2.4,1.8-4.1,0.8c0.6-2.1,4.9-5.6,0-6.2
		c0.3-3.3,4.6-0.3,4.1-4.6c-1.3-0.3-0.5,1.4-2.1,0.8C281.4,216.8,281.1,215.4,281,213.8"/>
	<path fill="#575756" d="M321.6,225.4c-1.6-2.5-3.8-1.3-5.8,0c-1-0.4-0.5-2.2-2.5-1.7c-3.1,3.2,3.1,5.1,2.5,7
		c-4.1-0.5-5.2-3.8-4.6-7C312.3,217.8,321.2,218.8,321.6,225.4"/>
	<path fill="#575756" d="M350.6,221.7c0.9,0.6,2.1,0.9,1.7,2.9c-2.1-1.8-2.6,0.7-5.4,0.4C348,223.8,349.9,223.4,350.6,221.7"/>
	<path fill="#575756" d="M265.2,223.4c0.9,0.2,1.1-0.3,1.7-0.4c2.1,1.1,3.6,2.7,3.7,5.8c-1.8-0.5-1.4-3.3-3.3-3.7
		c-1.6,3.3,1.1,7.1,0.8,11.2c-3.3-1.3-2-7.2-6.2-7.5c-0.1-2.8-1.8-4-4.1-4.6V223C261.3,221.2,264.3,230.8,265.2,223.4"/>
	<path fill="#575756" d="M356.8,230.8c1-2.7,1.1-5-1.7-5.8C363.3,219.3,365.3,234.1,356.8,230.8"/>
	<path fill="#575756" d="M307.1,227.9c1.8-0.6,1.1,1.4,2.5,1.2c-1.7,1.9-0.5,5.7,0,7.9C306.1,236,308,231.8,307.1,227.9"/>
	<path fill="#575756" d="M322.4,229.6c0.7,0.4,1.2,1,2.1,1.2C323.8,232,322.1,230.8,322.4,229.6"/>
	<path fill="#575756" d="M352.3,232.1c2.4,1.4-2.7,2.7-0.8,5c-1.3,0.4-1.3-0.7-2.1-0.8C349.9,234.4,351.4,233.5,352.3,232.1"/>
	<path fill="#575756" d="M285.1,232.9c-0.6,0.7-3.1,2.1-2.9,0C283.4,232.5,284,232.5,285.1,232.9"/>
	<path fill="#575756" d="M334.9,232.5c-2.1,4.3-3.3,9.1-5.4,13.7c-1.6,3.6-3.4,7.6-5,9.5c-0.1,1.3,0.4,3.2-1.2,2.9
		c0.5-3.2-1.8-2.7-0.8-5.4c1.9,1.8,0.5-1.5,3.3-0.8c0.2-1.6-0.7-2-0.4-3.7c2.9-4.9,4.5-11.2,7.5-16.2H334.9z"/>
	<path fill="#575756" d="M245.4,232.9c0.7-0.1,0.7,0.4,1.2,0.4c0.3,1.1-0.8,0.8-0.8,1.7C244.5,234.7,245.2,233.9,245.4,232.9"/>
	<path fill="#575756" d="M288.9,232.9c1.4,0.2,0.6,2.7,0.8,4.1c-1.4,0.2-2.5-0.4-4.6-0.8C285.7,234.5,289.8,236.1,288.9,232.9"/>
	<path fill="#575756" d="M283.9,235.4c-1.7,1.7-0.8,1.7,0.4,3.3c-2,0.2-3.2-0.4-2.9-2.5C282.7,236.4,282.3,234.9,283.9,235.4"/>
	<path fill="#575756" d="M327,235.4c1.5-0.3,1.1,3.6-0.4,2.9C326.7,237.3,327.2,236.7,327,235.4"/>
	<path fill="#575756" d="M268.6,236.2c1.2-0.1,1.2,1,1.2,2.1h-1.7C268,237.3,268.2,236.7,268.6,236.2"/>
	<path fill="#575756" d="M282.2,247.4c-0.3,2,3.4,1.4,3.7,0.4C285,246.5,284,247.4,282.2,247.4 M286.8,237.5
		c1.4-0.1,0.9,1.6,2.1,1.7c-0.2,0.5-0.5,0.9-1.2,0.8c-0.1,1,0.6,1.3,1.2,1.7c-1.3,1.6-0.1,4-0.4,7c-1-0.1-1.6,0.1-2.1,0.4
		c0.1,1.4,3,0.1,2.1,2.5c-2.2-1.1-5-1.6-7.5-2.5c-0.4-1.8,1.4-1.4,1.2-2.9c2.8,0.5,5.2,0.5,5.4-2.5c-2.5-0.3,0.7-4.2-2.5-4.1
		C285.4,238.6,286.5,238.4,286.8,237.5"/>
	<path fill="#575756" d="M343.1,237.5c0.3,0.2,0.7,0.4,1.2,0.4c-0.1,1.2-0.5,2-2.1,1.7C342.7,239,342.7,238,343.1,237.5"/>
	<path fill="#575756" d="M264.8,238.7c1.5,0.2,2.5,2.5,1.7,3.7C266.1,241,264.7,240.6,264.8,238.7"/>
	<path fill="#575756" d="M283.5,240.4c1.3,0.1,1.8,0.9,1.7,2.5C283.4,243.2,282.7,241.2,283.5,240.4"/>
	<path fill="#575756" d="M318.7,242c0.1,0.7-0.5,0.9-0.4,1.7c-1.3,0.2-1.8-0.4-1.7-1.7C317.7,242,317.9,241.2,318.7,242"/>
	<path fill="#575756" d="M340.7,241.6c1.4-0.1,2,0.5,2.1,1.7C341.4,243.4,340.7,242.8,340.7,241.6"/>
	<path fill="#575756" d="M281,242.4c1.5,0.9,3.5,1.2,5.4,1.7C285.2,246,281.1,244.2,281,242.4"/>
	<path fill="#575756" d="M324.5,244.1c1.9-0.2,1.1,1.9,0.8,2.9C324.2,246.8,323.6,245,324.5,244.1"/>
	<path fill="#575756" d="M242.9,246.2c2.3,2.1,5.6,3.3,5.4,7.9c-1.3-1-1.2-3.5-2.9-4.1c-1,0.3,0.1,2.6-0.8,2.9
		C242.7,252.1,241.4,247.4,242.9,246.2"/>
	<path fill="#575756" d="M286,247.8c-0.3,1-4.1,1.6-3.7-0.4C284,247.4,285,246.5,286,247.8"/>
	<path fill="#575756" d="M323.7,248.2c0.6,0.1,1,3.4-0.4,2.9C323,249.8,323.5,249.2,323.7,248.2"/>
	<path fill="#575756" d="M353.1,249.1h2.5c1.6,3.3-2.6,3.6-3.3,5.8C351.1,253.1,353.7,251.7,353.1,249.1"/>
	<path fill="#575756" d="M271,264c-4.3-3.4-6.7-8.8-10.4-12.8C264.1,251.7,269.6,258.6,271,264"/>
	<path fill="#575756" d="M284.7,252.4c-1.8,0.6-0.1,2.2,0.8,2.5c0.2,1.4-1.8,0.7-2.5,1.2c-1.3-1.7-0.2-3.3-1.2-5
		c2.8,0.2,5.3,0.8,5.8,3.3C286.1,255.2,284.9,254.1,284.7,252.4"/>
	<path fill="#575756" d="M244.5,253.6c1-0.2,0.9,0.8,2.1,0.4C246.2,255.5,244.6,255.4,244.5,253.6"/>
	<path fill="#575756" d="M240.8,255.3c0.5-1.1,2.2,0,2.9,0C243.3,256.9,241.5,255.7,240.8,255.3"/>
	<path fill="#575756" d="M354.3,254.9h1.2v3.3C353.8,258.4,354.5,256.2,354.3,254.9"/>
	<path fill="#575756" d="M363.4,254.9c0.2,2.9-2.9,0.3-3.3,2.9c0.3,1.4,1.2,1.4,0.4,2.9c-0.8-0.7-1.9-1.1-2.5-2.1
		C359.1,256.6,360.5,255,363.4,254.9"/>
	<path fill="#575756" d="M286.4,255.7c0.4,0.2,0.7,0.4,0.8,0.8c-0.8,1.5-1.4,1.1-0.4,2.9c-1.9,0.1-3.3-0.3-3.3-2.1
		C285.4,258.6,285.3,256.5,286.4,255.7"/>
	<path fill="#575756" d="M277.7,259.4c0.4,1.7-0.6,1.8-1.2,2.5c-0.9-0.2-0.2-2-0.4-2.9C276.4,259.3,277,259.4,277.7,259.4"/>
	<path fill="#575756" d="M314.6,259c0.5,0.5,0.5,1.5,0.4,2.5c-0.7-0.7-2.4-0.3-2.1-2.1C313.3,259.1,313.8,259,314.6,259"/>
	<path fill="#575756" d="M356.4,259.4c0.9-0.2,1.1,0.3,1.7,0.4c-0.1,0.7-0.7,0.9-1.7,0.8V259.4z"/>
	<path fill="#575756" d="M283.9,260.7c1.7,0.2,3.6,0.2,3.3,2.5c-1.1,0.1-1.5,1-2.5,1.2C285.6,262.3,284.3,262.3,283.9,260.7"/>
	<path fill="#575756" d="M319.9,260.7c0.7-0.1,0.7,0.4,1.2,0.4c0.3,1.1-0.8,0.8-0.8,1.7C319.3,262.7,319.4,261.2,319.9,260.7"/>
	<path fill="#575756" d="M353.9,260.7h1.2c-0.1,1.6,0.4,3.7-1.2,3.7C354.3,262.7,354.3,262.3,353.9,260.7"/>
	<path fill="#575756" d="M313.3,261.9h1.2c0.1,1.2,0.1,2.3-1.2,2.1V261.9z"/>
	<path fill="#575756" d="M247.4,265.6c1.2,0.1,0.8,1.7,0.8,2.9C247.6,267.9,247.4,266.9,247.4,265.6"/>
	<path fill="#575756" d="M286.4,267.3c1.4-0.3,1.6,0.6,2.9,0.4c-0.6,1-0.7,2.3-2.5,2.1C287.1,268.5,286.4,268.3,286.4,267.3"/>
	<path fill="#575756" d="M297.1,267.3c1.5-0.3,1.6,0.9,1.7,2.1c-0.5-0.3-1.1-0.5-2.1-0.4C296.6,268.1,297,267.8,297.1,267.3"/>
	<path fill="#575756" d="M334.9,267.3h2.1c0.4,1.4-1.3,0.6-2.1,0.8V267.3z"/>
	<path fill="#575756" d="M253.2,267.7h1.2c1.9,6.7,4.8,12.3,7,18.6c-3.7-2.9-8-5.3-11.2-8.7C250.9,273.9,254.7,272.2,253.2,267.7"/>
	<path fill="#575756" d="M302.5,268.1c0.3,1.5-0.9,1.6-0.8,2.9c-1.3-1.5-1.2-0.1-2.5,0.4c-0.5-1,1.2-1.7,0-2.1
		C300.2,268.8,301.4,267.2,302.5,268.1"/>
	<path fill="#575756" d="M348.5,268.1c0.7-0.1,0.7,0.4,1.2,0.4c0.4,5.7,2.8,8.5,3.7,12.8c-0.5,0.1-0.3,0.8-0.4,1.2
		c-4.8,0.9-7.5,1.5-11.2,3.7C343.3,281.1,346.8,274.4,348.5,268.1"/>
	<path fill="#575756" d="M312.5,279.7c-1.7,0.4-3.6,0.6-5,1.2c1.4-2.5,4-5.7,0.8-8.3c-8.1,8,4.8,15.9,2.5,28.2
		c-7.3-1-11.5-0.8-18.6-1.2c-4.5-9.3,2.6-14.5,2.1-24.4c-0.8-0.7-1.5-1.5-2.9-1.7c-4.2,1.9,0.1,6.5,1.2,8.3c-1.6,0.3-3.6-2.1-5-3.3
		c-1.9-5.9,1.2-9.4,5.4-9.1c9.8,0.7,6.3,17.3,1.2,22.4c0.8,0.6,2.1,2.1,0.4,2.9c1,1.9,4.2,1.6,5.4,3.3c2.7,0.3,3.7-1,5.4-1.7
		c-1.4-2.3-3.1-0.7-5-1.2c1.2-2.7,0.1-4.9,2.5-6.2c0.3,1.4-0.6,1.6-0.4,2.9c1.2,1.6,4,1.5,3.3,5c1,0.1,1.3-0.7,2.1-0.8
		c-1.6-8.3-10.2-17.3-3.7-26.1C311,266.2,315.8,273.1,312.5,279.7"/>
	<path fill="#575756" d="M264.4,270.2c1.8,2,5.1,2.4,5.4,5.8C267.1,275,264.7,273.6,264.4,270.2"/>
	<path fill="#575756" d="M358.5,276c1.6-0.3,0.8,2.9,0.4,3.3C357.8,278.8,357.2,276.6,358.5,276"/>
	<path fill="#575756" d="M329.9,276.8c1.2,0.1,1.8,0.7,1.7,2.1c-0.9,0.2-1.1-0.3-1.7-0.4c-0.4,0.3-0.4,1-1.2,0.8
		C328.6,278.1,329.7,277.9,329.9,276.8"/>
	<path fill="#575756" d="M275.2,285.5c-2.3-2.3-4.1-5-5.8-7.9C272,278,273.7,282.7,275.2,285.5"/>
	<path fill="#575756" d="M261.5,278.5c2.1-0.9,2.9,3.1,5,3.7c0,1.1-1.5,0.7-2.1,1.2c0.3,1.4,1.7,3.6-0.8,3.7
		c0.3-1.5,0.8-2.8-0.8-3.3C264.1,282.1,262.7,280,261.5,278.5"/>
	<path fill="#575756" d="M318.3,279.3v2.9C316,283,316,278.5,318.3,279.3"/>
	<path fill="#575756" d="M283.5,280.5c0.9,0.3,1.6,1.7,0.8,2.5C283.2,283,283.5,281.6,283.5,280.5"/>
	<path fill="#575756" d="M356,285.9c0,1.4-2.5,0.2-2.5,1.7C352.4,286.7,354.4,285.5,356,285.9"/>
	<path fill="#575756" d="M265.7,288c1.7,0,1.7,1.6,2.1,2.9C267,289.9,265.7,289.6,265.7,288"/>
	<path fill="#575756" d="M278.1,290.9c0.9,0.5,0.5,3.2-0.8,2.9C276.8,292.1,278.1,292.2,278.1,290.9"/>
	<path fill="#575756" d="M329.9,290.9c-0.9,1.6,0.6,2.1,2.5,2.1c-1.5,4.1-2.3,9-7,9.9c0.9-3.4,3.7-4.9,5-7.9
		c-0.5-1.3-1.6,0.6-2.1-0.4c0.3-1.4,0.8-1.8-0.8-1.2C327.7,292,328.1,290.8,329.9,290.9"/>
	<path fill="#575756" d="M278.9,292.1c1,0.4,1.1,1.7,1.2,2.9C278.5,295.3,279,293.5,278.9,292.1"/>
	<path fill="#575756" d="M246.6,293c2,0.8-1,2.5,0.4,4.1c-0.8-0.2-0.8-1.2-2.1-0.8C244.6,294.2,246.9,294.9,246.6,293"/>
	<path fill="#575756" d="M312.9,293.8c1,0.6,0.7,1.4,0.4,2.5C312.3,295.7,312.6,294.9,312.9,293.8"/>
	<path fill="#575756" d="M280.6,295.5c0.6,0.5,0.8,1.4,0.8,2.5C280.1,298.1,279.9,296.1,280.6,295.5"/>
	<path fill="#575756" d="M272.7,305.4c-0.3-0.9,0.7-2.9-0.8-2.5C272.1,303.8,271.2,305.8,272.7,305.4 M268.6,297.5
		c0.8,0.8,1.7,1,2.9,0.4c0.8,1.3,2,2.1,3.3,2.9c-1.5,3.2,1.8,4.1,0.4,7c-1.1-0.1-0.7-1.7-1.7-2.1c-1.7,1.9,1.2,2.7,1.2,4.1
		c-4.2-0.1-3.5-7.5-3.7-9.9c-0.8,0.6-0.1,2.7-2.1,2.1C270.8,300.7,269,299,268.6,297.5"/>
	<path fill="#575756" d="M260.7,297.9c2.1-0.2,3,2.3,2.1,3.7C262.1,300.4,260.8,299.8,260.7,297.9"/>
	<path fill="#575756" d="M258.6,300.4c0.7-0.1,0.7,0.4,1.2,0.4c-0.3,2.8-2.3,4-2.5,7C254.2,306.3,259.6,303.8,258.6,300.4"/>
	<path fill="#575756" d="M286,300.8c3,3.3,3.1,9.6,6.2,12.8c0.4,1.6-1.8,0.7-1.2,2.5c0.1,0.3,0.4,0.4,0.4,0.8
		c1.3,0.2,1.6-0.6,2.5-0.8c-0.8-6.2,0.9-12.7,5.8-14.5c-0.7,2.7-3.5,4.6-2.5,7.9c-4.7,3.2-0.2,11.4-4.1,15.7
		c2.7,4.4,1.3,11.2,0.4,17c-1.5-5.7-0.1-13.6-4.1-17.4C292,315.3,282.9,310.5,286,300.8"/>
	<path fill="#575756" d="M271.9,302.9c1.5-0.4,0.6,1.6,0.8,2.5C271.2,305.8,272.1,303.8,271.9,302.9"/>
	<path fill="#575756" d="M267.3,303.7c1.6,1.3,1.9,3.9,2.9,5.8c-1.8-0.4-3.2,0.8-4.1,0C266.2,307.3,267.9,306.6,267.3,303.7"/>
	<path fill="#575756" d="M348.5,307.9c2.1-0.2,0.2,3.7,2.1,3.7c-2,0.6-2.9,2.4-3.3,4.6c-0.9-1.4-4-5.7-1.2-6.6
		c0.8,0.3-0.1,2.3,0.8,2.5C348.4,311.7,348.4,309.7,348.5,307.9"/>
	<path fill="#575756" d="M322.4,309.1c1.6-0.3,0.7,2.4-0.4,2.1C321.7,310,322.6,310.1,322.4,309.1"/>
	<path fill="#575756" d="M337.3,311.6c0.6,0.2,1,0.6,1.7,0.8v4.1c-2.8,1.5-4.4,3.1-8.3,4.1C331,317.4,335.2,314.5,337.3,311.6"/>
	<path fill="#575756" d="M349.4,314.5c1.5,0.3,1.3,2.3,1.2,4.1C347.4,319.3,348.8,315.8,349.4,314.5"/>
	<path fill="#575756" d="M303,314.9c0.9,1,0.4,7,0.4,8.7C302,321.4,303.1,318.4,303,314.9"/>
	<path fill="#575756" d="M281,316.6c0.9,0.1,0.9,1,0.8,2.1C280.4,318.5,280.7,317.6,281,316.6"/>
	<path fill="#575756" d="M320.4,317.4c0,1.4-1.3,1.4-1.2,2.9C317.5,319.8,318.9,317.4,320.4,317.4"/>
	<path fill="#575756" d="M263.6,319.5c-0.3-1.1,0.8-0.8,0.8-1.7c1,0.5,2.8,0.2,2.9,1.7C265.6,319.4,265,320.2,263.6,319.5"/>
	<path fill="#575756" d="M251.2,321.1c1.2,0.1,0.8,1.7,0.8,2.9C250.4,324,250.8,322.2,251.2,321.1"/>
	<path fill="#575756" d="M265.2,323.2h1.7c0.4,1.3-1.1,0.9-1.2,1.7C265.1,324.7,265.3,323.8,265.2,323.2"/>
	<path fill="#575756" d="M341.5,324.5c0.7-0.1,0.7,0.4,1.2,0.4c-0.2,1.1-0.4,2.3-2.1,2.1C340.5,325.7,341.6,325.7,341.5,324.5"/>
	<path fill="#575756" d="M284.7,329.4h1.2c1.5,4.8,2.9,9.3,2.9,14.1C287.6,338.8,283.6,333.9,284.7,329.4"/>
	<path fill="#575756" d="M317.5,330.7c1.1-0.1,1.4,2.8-0.4,2.1C316.7,331.6,317.6,331.7,317.5,330.7"/>
	<path fill="#575756" d="M323.7,331.1c1.1,0,0.8,1.4,0.8,2.5C323,334,323.9,331.9,323.7,331.1"/>
	<path fill="#575756" d="M322.4,334.8c1.8,0-0.3,1.8,0.4,3.3c2.4,5.8,6.1,10.2,8.7,15.7c-3.5,4.2-9.1,6.3-16.2,7
		C317.3,351.8,319.2,342.7,322.4,334.8"/>
	<path fill="#575756" d="M328.2,340.6c1,1,1.9,1.9,2.1,3.7C329,343.7,328,342.8,328.2,340.6"/>
	<path fill="#575756" d="M285.5,341.9c1.3,1.3,1.8,3.5,2.1,5.8C286.6,346,286.2,343.8,285.5,341.9"/>
	<path fill="#575756" d="M311.2,342.7c5.2,1.9-1.2,6.6,0.4,9.9c-1.6-0.4-2.1-1.7-2.1-3.7c0.6-0.6,1-1.4,2.1-1.7
		C310.4,345.9,311.4,344.9,311.2,342.7"/>
	<path fill="#575756" d="M289.3,345.2c1.5-0.1,1.5,2.5,0.8,3.3C288.7,348.2,288.7,346.4,289.3,345.2"/>
	<path fill="#575756" d="M268.1,345.6c1.2,0,0.7,1.8,2.1,1.7C269.8,348.9,267.9,347.1,268.1,345.6"/>
	<path fill="#575756" d="M267.7,347.7c0.5,0.6,1.2,1,1.2,2.1C267.7,349.8,266.9,348.5,267.7,347.7"/>
	<path fill="#575756" d="M261.1,348.5c1.1,0,1,2,0.4,2.5C260.5,350.4,260.8,349.6,261.1,348.5"/>
	<path fill="#575756" d="M290.1,348.9c1.9-0.3,1,2.3,1.2,3.7C289.9,352.5,290.2,350.5,290.1,348.9"/>
	<path fill="#575756" d="M288,350.6c1.5-0.2,0.2,2.6,1.2,2.9C288.2,354.8,288.3,351.4,288,350.6"/>
	<path fill="#575756" d="M288.9,354.3c0.6,0.8,1.4,2.6,0.8,3.3C288.7,357.2,288.8,355.7,288.9,354.3"/>
	<path fill="#575756" d="M332.4,356.4v1.2c-0.7-0.1-2.1,0.4-1.7-0.8C331.1,356.5,331.6,356.3,332.4,356.4"/>
	<path fill="#575756" d="M330.3,358c-2,2.2-5.1,3.2-7,5.4c-1.8-1.3-2.2-1.6-5.4-1.2c0.4-1.8,4-0.4,5.8-0.8
		C325.6,360,327.4,358.5,330.3,358"/>
	<path fill="#575756" d="M329.5,361.3h1.2c0,1.1-0.6,1.6-1.7,1.7C329,362.3,329.6,362.1,329.5,361.3"/>
	<path fill="#575756" d="M278.5,361.8c1.1,1.5,3.3,1.9,5,2.9C281.8,367.7,276.2,364.9,278.5,361.8"/>
	<path fill="#575756" d="M298,365.9c-0.2,1.3,0.7,1.5,0.4,2.9c-0.8,0.2-0.7,1.2-2.1,0.8c0.5-1.8,0.1-1.8-0.4-3.3
		C296.4,366,297,365.8,298,365.9"/>
	<path fill="#575756" d="M272.3,367.1c1.7-0.2,1.8,1.2,3.7,0.8C275.3,368.8,272.2,368.5,272.3,367.1"/>
	<path fill="#575756" d="M268.1,370.5c-3.3,1.3-4.5,6.8-1.2,9.1c0.7-1.9,2.4-2.8,3.3-4.6c4.2,1.3,6.3,0.2,9.9,1.2
		c-6.1,0-9.9,3-15.7,4.1c0.9-2.3-2.7-4.6-0.8-7.9c-0.4-1.2-1,0.5-2.1,0C261.5,369.7,265.8,369.6,268.1,370.5"/>
	<path fill="#575756" d="M335.3,371.7c0.2,1.7-1.4,0.3-2.1,0.4c1.7,3.5-1.6,5.9-0.8,8.3c-6.1-0.8-9-4.7-15.7-3.7
		c3.1-2,5.8-0.1,9.9-1.7c0.5,1.9,3,2,2.9,4.6c3.9-1.7,2.5-7.9-0.8-9.1C330.9,369.6,334.4,369.9,335.3,371.7"/>
	<path fill="#575756" d="M312.5,372.9c-5.5-1.2-11.3,3.5-15.7,0c-2.4,0.3-5.6,0-7,0.4c-0.3-3.6,3.3-1.6,5.4-1.7
		C299.8,371.6,308.4,369.3,312.5,372.9"/>
	<path fill="#575756" d="M281.4,372.5h2.5C283.9,373.8,281.1,374.4,281.4,372.5"/>
	<path fill="#575756" d="M288.9,375.4c-2-0.1-4.2,1.8-5.4,1.2C284.5,375.8,287.9,372.5,288.9,375.4"/>
	<path fill="#575756" d="M290.5,375.4c2.6-0.2,7.2,1.1,10.4,1.7c1.8-0.3,4-1.6,4.6,0.8c-2.3,0.3-4.9,0.4-5.8,2.1
		c0.9,2,6.2-0.4,6.2,2.5c-4.6-0.5-10.6,0.3-15.3,0.4c0.2-1-0.8-0.9-0.4-2.1c2.5,0.2,6,2,7.9-1.2c-2-0.8-5.1-1.1-7.5-0.4
		C289.5,377.9,291.7,376.5,290.5,375.4"/>
	<path fill="#575756" d="M271.9,382.5c-1.4,0.3-0.8,2.5-2.5,2.5c0.2-1-0.8-0.9-0.4-2.1C269.9,382.8,270.5,382.2,271.9,382.5"/>
	<path fill="#575756" d="M324.9,382.9c0.5-1.1,2.2,0,2.9,0c0.3,1.2-0.6,1.1-0.4,2.1C325.5,385.4,326.8,382.5,324.9,382.9"/>
	<path fill="#575756" d="M301.3,382.9c0.6,1.9,3.4,1.6,5.4,2.1c-0.1,1.4-2.5,0.5-2.1,2.5c-5.5-1.9-11.5,1.8-14.9-1.7
		C291.1,382.7,298.9,385.9,301.3,382.9"/>
	<path fill="#575756" d="M288,385.8c1.7,0.5-0.1,4.2-1.7,4.1C285.9,387.6,288.1,387.8,288,385.8"/>
	<path fill="#575756" d="M298.8,389.9c1.8-0.1-0.4,1.1,0,2.1c0.2,9.2-1.5,16.9-7.2,21.5c0.1,0.1-0.1,0.4-1.1,0.9
		c-4.9,3.1-11.5,0.1-10.4-6.6c1.2-2.3,5.5-5.1,7-1.2c0.1,1.7-0.8,2.3,0,3.7c7.1-2.6,7.8-9.9,7.5-17.4c0.5-1,2.5-0.5,2.1-2.5
		C297.5,390.2,299,391.7,298.8,389.9"/>
	<path fill="#575756" d="M281.8,394.9c-0.5-2.6,1.4-2.7,2.1-4.1C284.7,392,283.5,394.8,281.8,394.9"/>
	<path fill="#575756" d="M315,394.9c-1.9-0.3-2.2-2.3-2.5-4.1C313.6,391.8,315.3,392.3,315,394.9"/>
	<path fill="#575756" d="M281.8,394.9c0.6,1.8-2,3.7-3.3,5c-1-1.7,1.7-2.4,0.4-5C279.9,396.9,280.3,395.4,281.8,394.9"/>
	<path fill="#575756" d="M315,394.9c1.3,0,2.1,2.6,2.5,0c0.2,2,0.5,2.9,1.2,5C316.9,399,314.6,396.7,315,394.9"/>
	<path fill="#575756" d="M276.4,398.2c0,1.2-2.5,1.1-2.1-0.4C275.2,396.9,275.7,397.8,276.4,398.2"/>
	<path fill="#575756" d="M322.4,397.8c0.3,1.4-1.5,1.5-2.1,0.8C320.7,397.8,321.6,396.9,322.4,397.8"/>
	<path fill="#575756" d="M267.3,319.5c-0.1-1.5-1.9-1.2-2.9-1.7c0,0.8-1.1,0.5-0.8,1.7C265,320.2,265.6,319.4,267.3,319.5
		 M267.7,322.8c-1-1.9-3.3-2.5-5-3.7c-0.1-2.6,1.3-4.4,2.1-7c3.1,2.6,6.1,5.2,8.3,8.7c-2.4,0.6-3.2-2.5-5.4-0.8
		c7.2,2.9,13.7,8.1,12,16.6c-2,10.1-16.2,17-11.2,29.4c-5-1.2-5.2-7.2-7.5-11.2c2.2,1.4,1.9-1.5,3.7-1.7v2.1c1.6-0.3,2-1.9,2.9-2.9
		c-0.4-1.1-1.5,0.7-2.1-0.4c-0.1-0.7,0.5-0.9,0.4-1.7c1.7-0.5,2,0.4,2.5,1.2c2.4-1,3.5-3.4,4.1-6.2c-0.2-0.9-1.6,0.6-1.2,1.7
		c-2-2-0.2-5.9,1.7-6.6c0.8,1.5,0,2.4,0,4.1c1.1-0.4,1.7-1.3,2.1-2.5c-0.1-1.4-1.5-1.6-1.7-2.9c3.1-3.8,4.8-9.2,1.7-14.1
		c-1.7,3.7-3,7.8-5,11.2c-3,2.5-4.3,6.7-7,9.5c1-1.3,0.5-3.4,1.7-5.4c0.4-0.6,1.6-0.7,2.1-1.2c2.8-3.3,8.9-13.8,2.1-17
		C268.6,322.3,267.8,322.2,267.7,322.8"/>
	<path fill="#575756" d="M346,106.1c1.7-0.2-0.2,1.2,0.4,2.5c-2.8-0.5-2.6,2.1-3.3,3.7c-1.2-0.2-1.5-1.3-1.7-2.5
		C343.2,108,345.2,108.9,346,106.1"/>
	<path fill="#575756" d="M282.2,162.5c2.4,1.2,0.4,7.2-0.8,10.8c-1.7,5.2-5.4,11.4-4.6,18.2c2,0.2,1-2.6,1.2-4.1
		c8.8-20.5,12.6-45.2,11.2-74.2c4.1,23.4,0.3,53-9.1,70.8c-0.3,4.9-2.7,9.2-2.9,12.8c-1.3-2,0.5-4.7-2.1-5.4c-1-8.4-0.2-17.5,3.7-24
		c0.7,6-4.2,11.6-3.3,17.8c1.4-0.7,1.4-3.2,1.7-4.6C278.5,174.8,281.2,168.1,282.2,162.5"/>
	<path fill="#575756" d="M242.9,128.9c0.9,1.4,1.6,0.8,2.9,1.2c0,1.6-0.8,2.2-2.1,2.5C244.1,130.7,243.2,130.1,242.9,128.9"/>
	<path fill="#575756" d="M327.4,135.9c1.5,0.5,3.7-0.3,3.7-2.5c-0.4-1-1.4-1.3-2.9-1.2C328.6,134.1,327.5,134.6,327.4,135.9
		 M323.3,133c-1-0.2-0.9,0.8-2.1,0.4c0-1.1,0.2-2,0.8-2.5C323.3,130.8,323.3,131.9,323.3,133c1.7-0.6,1.9-2.8,3.3-3.7
		c6-1.2,7.1,2.5,9.5,5c-0.6,1-2.3,1-2.5,2.5c-2.6-0.6-7.1,0.8-10.4-1.7V133z"/>
	<path fill="#575756" d="M298.8,175.3c1.2,0.3,2.4,0.7,2.1,2.5c1.4,0.3,1.8-0.4,2.1-1.2c1.1-0.1,0.3,1.6,1.7,1.2
		c1.2-1.2-1-0.7-0.8-2.1c0.4-0.9,1.3-2.4,2.1-1.7c1.2,1.2-1.2,0.5-0.8,2.1c1,0.9,1.7-1,2.1-2.1c-4.4-9.4-5.9-19-6.2-32.3
		c0-2.2-0.4-5.5,1.2-7c0.2,13.2,2.4,28.1,7,38.9c0.1,0.8,1.4,0.3,1.7,0.8c0.9,5.2,4,8.2,5,13.3c-2.9-3.9-5.1-8.4-7.9-12.4
		c-1.2,0.6-2.9,2.9-2.5,3.7C303.9,178.5,298.9,179.2,298.8,175.3"/>
	<path fill="#575756" d="M242,139.7c1,0.9-0.1,1.6,0,2.9c-1.1,0-0.6-1.6-1.7-1.7c-2.7,1.9-4,5.2-7.5,6.2c-0.9-2.4,0.9-6.7,4.1-5
		C238.7,141.3,239.4,139.5,242,139.7"/>
	<path fill="#575756" d="M270.6,141.3c5.4-1.3,11.1,7.4,4.6,9.1c0.4-2.1,0.1-5.4-1.7-7.5c-0.8,2-3,2.6-3.7,4.6
		c0.6,1.6,2.2,2.2,3.7,2.9c-1.4,2.8-5.3-2.6-6.2,0.8C267.4,148.6,268.3,143.1,270.6,141.3"/>
	<path fill="#575756" d="M333.2,150.4c0.2,1.4-1.2,1.2-1.7,2.1C330.8,152.2,332.2,149.2,333.2,150.4"/>
	<path fill="#575756" d="M303,168.3c-0.9,1.5-2.5,2.4-4.1,3.3c0.3-1.2-0.6-1.1-0.4-2.1C300.2,170.8,301.5,168.6,303,168.3"/>
	<path fill="#575756" d="M312.1,186.5c-0.9-0.2-1.1,0.3-1.7,0.4c0.2,1,0.4,2.1,1.7,2.1c-1.6,1.7-2-1.3-2.9-1.7
		c0-1.2,1.6-1.8,0.4-2.9c-1,0.1-0.8,1.4-2.1,1.2c0-0.8-1.1-0.5-0.8-1.7c1.9,0.5,2-0.8,2.9-1.2c1.6,1.4,4.2,4.1,3.7,6.2
		C311.9,189.1,312.6,187.2,312.1,186.5"/>
	<path fill="#575756" d="M283.1,190.6c1.4,1.5-1.1,2.8-0.8,4.6C280.1,193.7,283,192.5,283.1,190.6"/>
	<path fill="#575756" d="M315,246.2v-0.8c-1-1.3-1.8-0.2-3.7-0.4c-0.4-1.5,1.6-0.7,1.2-2.1c-0.7-1.3-2-0.6-2.9,0
		c1.4,6.9,0.5,16.2,2.5,22.4c-7.4,1-16.2,1.3-22.8,0c2.3-16.1,2.4-30,5-43.9c-5.7-5.8-13.1-18.4-4.1-26.5c1.7-1.5,4.1-1.6,5.8-3.7
		c19.7-4.6,25.9,19.4,12,27.3c-0.2,3.8,0.9,5.9,0,8.7c-2.4-1.1-0.9-6-1.7-8.7c11-5.8,7.9-26.6-6.6-25.7c-4.9,0.3-13.1,6.4-12,13.3
		c0.6,3.9,2,7.2,3.7,9.5c2.4,3.3,3.8,3.7,2.9,9.1c-1.8,11.3-1.2,25.8-3.7,38.1H310c0-8.9-2.2-17.2-1.7-24.9c1.6,0.2,0.6,3,1.7,3.7
		c2.1-0.9,3.9-0.2,4.6-1.7c0.1,1,0.4,1.8,1.2,2.1c-1,0.8-1.8-1.2-2.5,0.8c0.8,1.4,3.9,0.5,3.7,2.9c-1.7,0.7-3.6,1.1-3.7,3.3
		c1.4,0.8,4.8-3.6,5.8-0.8c-1.9,1.4-4.1,2.5-6.6,3.3c0.4-2.2-0.5-3.1-0.8-4.6C312.6,246.5,313.3,245.9,315,246.2"/>
	<path fill="#575756" d="M270.2,231.2c-0.3-1.2,0.6-1.1,0.4-2.1c1.5-0.3,0.7,1.8,1.7,2.1c2.6-1.7,0.4-5.5,0-7.9
		c1.3-1,1.9-2.8,2.9-4.1c1,2,3.8,2.3,3.7,5.4c-1.5-0.4-3-0.8-3.7-2.1c-1.4,2.7-0.9,8.8-1.2,11.6
		C271.3,234.6,273.2,230.5,270.2,231.2"/>
	<path fill="#575756" d="M318.3,282.2v-2.9C316,278.5,316,283,318.3,282.2 M320.4,262.7c0-0.8,1.1-0.5,0.8-1.7
		c-0.5,0-0.6-0.5-1.2-0.4C319.4,261.2,319.3,262.7,320.4,262.7 M323.3,251.1c1.4,0.5,1-2.8,0.4-2.9
		C323.5,249.2,323,249.8,323.3,251.1 M325.3,247c0.3-1,1-3.1-0.8-2.9C323.6,245,324.2,246.8,325.3,247 M342.7,243.3
		c-0.1-1.2-0.7-1.8-2.1-1.7C340.7,242.8,341.4,243.4,342.7,243.3 M342.3,239.5c1.6,0.3,2-0.5,2.1-1.7c-0.6,0-0.9-0.2-1.2-0.4
		C342.7,238,342.7,239,342.3,239.5 M326.6,238.3c1.5,0.7,1.9-3.2,0.4-2.9C327.2,236.7,326.7,237.3,326.6,238.3 M332.8,232.5
		c-2.9,4.9-4.5,11.2-7.5,16.2c-0.3,1.7,0.6,2.1,0.4,3.7c-2.8-0.7-1.4,2.7-3.3,0.8c-1,2.7,1.3,2.2,0.8,5.4c1.7,0.3,1.2-1.6,1.2-2.9
		c1.6-1.9,3.4-5.9,5-9.5c2-4.6,3.3-9.4,5.4-13.7H332.8z M343.1,249.1c-0.1-2.1-2.7,0.8-2.5-1.2c1.6,0.1,3.1,0,4.1-0.4
		c-0.4,3.9-3.1,5.5-5.4,7.5c-0.3,1.5,1.5,1,2.1,1.7c0.3,1.7-0.6,2.1-0.4,3.7c-2.3-0.7,0-3.8-3.3-3.7c-4.9,3.4-8.4,8.1-10.8,14.1
		c3.5-3.7,7.3-7,12-9.5c0.7,4.7-9.5,3.9-7.5,9.9h-1.7c-6.8,8.3-10.5,19.6-14.1,31.1c-2.5-5.4,3.3-10.5,2.5-15.7
		c-2.3-0.4-0.5,3.3-1.7,4.1c-2.1-3.5,1.2-4.7,0.4-7.9c-1.4,1.1-4,6.7-1.2,7.9v4.1c-2.4-0.2-0.3-5.3-2.9-4.1
		c0.6-5.1,2.4-9.5,2.1-14.5c1.3,0,1.2,1.3,1.2,2.5c0.6-3.6-0.5-8,1.2-12.8c1.9-0.3-0.1,3.1,1.7,2.9c0.6-0.4,0.6-1.3,0.8-2.1
		c0.2-1.1-1.5-0.4-1.7-1.2c-0.9-1.1,1.9-5.1-0.4-6.2c5.1-5.4,1.6-18,6.2-23.2c-0.5-1.2-2.7,0.2-2.5-2.5c6.4,1.7,2.1-5.3,0-7.5
		c2.4,0.4,2.1-1.7,4.1-1.7c2,2.1,0.9,5,1.7,7.9c3.2-1.6,3.1-6.5,6.6-7.9c2.3,0.9-0.3,4.5,1.7,5.4c3-1.7,4.5-4.9,7.5-6.6
		c3,0.9-1.7,4.4,1.2,5.4c2.2-0.4,2.8-2.4,6.2-1.7c-0.6,4.1-2.1,7.3-4.6,9.5c-0.4,1.9,2.1,1,2.1,2.5c-2.3,0.6-3.3,1.4-2.1,3.7
		c-2.7,0.8-3.3,3.6-6.6,3.7c-0.1,0.7-1.4,2.1-0.4,2.5c-0.1,0.6-1,0.3-1.7,0.4c-7.7,7.9-13.2,18-17,29.8c-2-0.4-0.2-3.3,0.4-3.7
		c1.5-7.3,5.4-12.3,7.5-19.1c0.7,0.1,0.9-0.5,1.7-0.4c0.7-6.2,5-8.9,7.9-12.8c-0.3-0.4-1-0.4-0.8-1.2c0.7,0,1.1,0.3,1.2,0.8
		c2.2-6.3,10.4-6.5,10.8-14.5c-2.5,1.7-5.8,2.5-6.6,5.8c-1.4,0.1-0.5-2-2.5-1.2c-1.2,0.4,0.1,1.8,0,2.5
		c-6.9,7.7-11.4,17.9-16.2,27.8c-1.7,0.6-0.1-2.1-1.2-2.1c-2.1,0.9,1.9,3.4,0.4,5c-1.1,0-0.7-1.5-1.2-2.1c-0.9,0.1-0.8,1.1-1.2,1.7
		c-0.3,1.1,0.9,0.8,1.2,1.2c-1.9,5-4.4,10.3-2.1,16.2h-1.2c0.3,1-0.5,3,0.4,3.3c1.7-3.5,2.9-7.9,5-12c1.5-0.4,0.3,1.9,1.7,1.7
		c0.3-2.2-1.9-3.1,0-4.6c0.7,0.1,0.9,0.7,0.8,1.7c1.4-0.9-1-1.5-0.4-2.9c3.2-5.5,7.2-10.2,10.4-15.7c1.4,0,2.1-0.7,3.7-0.4
		C341.2,252.4,342,250.5,343.1,249.1"/>
	<path fill="#575756" d="M238.7,230.4c-0.7,2.5,1.7,1.9,1.7,3.7c-2.4-0.8-4-2.3-5.4-4.1c-0.5-4.6,7.4-8.3,9.5-3.7
		c-2.9-0.9-4.2,1.8-2.9,3.7C241.6,230.7,239.3,229.3,238.7,230.4"/>
	<path fill="#575756" d="M318.3,237.5c0.5-1.3-1.3-0.3-0.8-1.7c0.9-0.2,1.1,0.3,1.7,0.4c-0.9,1.5-0.9,2.2,0,3.7
		c-1-0.3-2.2-0.5-3.7-0.4c-0.2-0.9-0.9-1.3-1.2-2.1c-0.9,0.5-0.5,2.2-2.5,1.7c0.1-1.7,1.6-2.6-0.4-3.3c2.7-1.5,2.9,0.6,5,0.8
		c0.3,1.2-0.6,1.1-0.4,2.1C317.7,239.4,316.3,236.8,318.3,237.5"/>
	<path fill="#575756" d="M276,259c0.2,0.9-0.5,2.7,0.4,2.9c0.6-0.6,1.7-0.8,1.2-2.5C277,259.4,276.4,259.3,276,259 M278.9,262.7
		c-0.4,0.3-0.9,0.4-1.7,0.4c0.6,2.2,1.5,4,3.7,4.6c-1.6,3.9,2.1,4.8,1.7,9.5c-2.4,0.1-0.2-4.2-2.9-3.7c-0.3-2.8-1.2-4.6-2.5-7.5
		c-2.8-6-5.6-10-7.5-16.6c1.3,2,2.7,2.3,5.4,1.2c0.5,1.3-1.2,2.3,0,2.9c-0.3,0.7-2.8,0-2.5-1.2c-0.8,1.7,1.5,3.7,2.1,5.4
		c0.9-0.5,0.5-2.2,2.5-1.7C275.7,259.2,279.7,259.2,278.9,262.7"/>
	<path fill="#575756" d="M316.2,256.1c-1.3-1.1-1.8,1.3-3.3,1.2c-1.7-2.1,2.2-1.5,2.1-3.3c0.1-1.1-0.9-1.1-1.7-1.2
		c2.2-2.3,4.2,2,3.3,3.3C316.5,256.6,316.2,256.3,316.2,256.1"/>
	<path fill="#575756" d="M339,269.4c0.4-1.5-1.6-0.7-1.2-2.1h2.1c0.4,4.1-2.8,4.7-3.7,7.5c-0.4,1.3,1.4,0.6,1.2,1.7
		c-4.2,5.8-9.3,10.8-14.1,16.2c0.4-4.7,4.3-7.8,4.1-11.6c1.3,0,2.1,0.4,2.5,1.2c1.9-1.6,3.9-3,5.4-5c0.1-1.9-2-1.9-3.3-1.2
		C333.6,274.7,336.7,271.3,339,269.4"/>
	<path fill="#575756" d="M254.1,314.1c0.6-1.3,1.8,0.3,2.9,0c-0.1,1-0.1,2,0.4,2.5c1.4-1.4,2.1-3.4,2.5-5.8
		c-2.4-0.7-1.4,1.9-2.1,2.9c-2.3-1.7,0.6-3.2,0.8-5c1.3-0.4,0.6,1.4,1.2,1.7c0.5-0.1,0.7-0.7,1.2-0.8c0-1.3-1.9-0.9-1.2-2.9
		c1.1,0.4,1.7,1.5,2.5,0c-0.1-1-2-0.2-1.7-1.7c0.4-1.8,2.6-1.8,3.7-2.9c-0.4-4.6-1.7-6-2.5-9.9c-6,5.3-6.9,15.7-10.8,23.2
		c0.3,1,1.3,4.3-0.8,4.1c-2.5-13.7,12.5-22.5,4.6-35.2c-2.7-0.9-4.5-2.7-5.4-5.4c5.8,5.2,13,8,15.3,15.7
		c4.4,14.5-16.2,29.3-1.7,38.9h2.1c-6,0.5-10.1-4.5-12.8-8.7c0-1.9,0.9,0.5,1.7,0.4c0.5-3,2.7-3.7,3.3-7.5c-0.4-0.6-1-0.9-2.1-0.8
		C256,315.8,256.9,313.6,254.1,314.1"/>
	<path fill="#575756" d="M341.9,297.9c1.3,2.6-4.8,4.6-2.1,7.5c0.3-1.6,1.7-2.2,2.1-3.7c2,1-0.5,3.2-1.2,4.1
		c1.1,1.2,2.4-0.9,2.5-2.1c2.1,1.5-1.4,3.6-2.1,5c2.6,5,6.4,12.5,3.3,19.5c0.2-10-6.4-18.8-7.5-28.2c-0.1-0.6-0.9-1.4-0.8-2.1
		c0.2-5.7,5.2-10.7,11.6-12.4c-1.5,1-2.6,2.3-4.1,3.3c-0.1,2.3-0.5,4.2,0,6.2c1.2,5.3,7.5,9.8,3.3,14.1c-0.1-1-0.1-2,0.4-2.5
		c-1.9,0.1-2.2,1.7-3.3,2.5c-0.6-1.6,2.2-3.3,2.5-5.4c-0.2-0.3-0.4-0.7-0.4-1.2c-0.7,0-1.1,0.3-1.2,0.8c-0.9-0.4,0.5-1.9,0-3.3
		c-1.6-0.6-0.1,1.9-1.7,1.2c1.9-2.6-0.6-3.2-0.4-6.2c-2.6,0.9-5.6,3.5-4.1,7C339.5,300.6,340.9,299.4,341.9,297.9"/>
	<path fill="#575756" d="M252.8,288.8c2.3,0.7,0.8,3-0.8,3.3C251.2,291.6,252.9,290,252.8,288.8"/>
	<path fill="#575756" d="M250.3,295c1.8,0.6-0.2,1.9-0.4,2.9c2.1,0.3,2-1.6,3.3-2.1c0.1-1.1-1.6-0.3-1.2-1.7c1,0.2,0.9-0.8,2.1-0.4
		c1.2,1.7,0.4,5.4-2.9,5c-0.4,1.5,1.6,0.7,1.2,2.1c-1.8,0.7-3.9-1.5-4.6-3.3C249.1,297.1,250.7,297.1,250.3,295"/>
	<path fill="#575756" d="M322.4,293.8c1.1,0.6,0,2.5-0.4,2.9C321.5,296.7,322.1,294.4,322.4,293.8"/>
	<path fill="#575756" d="M330.3,344.3c-0.1-1.8-1.1-2.8-2.1-3.7C328,342.8,329,343.7,330.3,344.3 M335.3,344.3
		c-0.4,1.2-0.8,3.1,0.8,5c0.3-0.6,1.6-0.1,1.7-0.8c0.6,1,1.2,2.1,2.1,2.9c0.9-0.1,0.2-1.8,0.4-2.5c1.2,0.6,0.4,2.8,0,4.1
		c-1.5-0.2-2.3-1-3.3-1.7c0.4,1.3,1.1,5.8,1.7,8.3c-2.9-0.6-2.5,2.8-3.7,4.6c-2.8,3.9-7.2,3.6-12.4,5.4c-0.1-1.2,1-1.2,2.1-1.2
		c0.3-1.4-1.7-0.5-1.2-2.1c0.9-0.6,2.4,0.6,3.7,0.8c2-0.9,3.9-1.9,5.8-2.9v-2.1c2,0,2-3.3,1.7-5.8c-1-7.3-10.5-13.2-9.9-22
		c2.3-0.3,0.5,3.4,2.1,3.7c0.8-0.9-0.5-2.7,0.8-3.7c0.6,0.6,0.7,1.8,0.8,2.9c2-1.4,3.5-3.1,3.3-6.6c-1.7-0.2-0.2,2.9-2.1,2.5
		c-0.6-1.3-0.5-3.3,1.2-3.3c0.3-1.6-0.5-2-0.4-3.3c-1.3,1.7-3.3,0.3-4.1,2.5c0.6,1.2,1.1,2.4,0.4,3.7c-4.6-5.8,3-10.6,8.3-11.6
		c-8.2,8.3,4.3,17.8,4.6,25.3c-0.6-0.3-0.8-0.9-0.8-1.7c-1.2,0.2-0.6,2.2-2.5,1.7c0.2-1.4,1-2.1,1.7-2.9c-1.3-2-2.2-4.4-4.1-5.8
		c-1.8-0.2-0.8,2.2-2.9,1.7c0-2.4,2.8-1.9,2.1-5c-2,0.5-2.2,2.8-3.7,3.7c1.2,2.9,2.9,5.4,5,7.5C335,345.8,333.8,343.7,335.3,344.3"
		/>
	<path fill="#575756" d="M271,392c0-2.2,1.8-2.7,1.2-5.4c1.1-0.4,2.2-0.9,3.7-0.8c0,2.8-4.8,4.6-2.9,6.6
		C273.1,393.2,271.6,392.1,271,392"/>
	<path fill="#575756" d="M320.8,385.8c1.5,0,2.6,0.4,3.7,0.8c-0.5,2.7,1.2,3.2,1.2,5.4c-0.3,0.6-1.6,0.1-1.7,0.8
		C325.2,390.7,321.3,388.7,320.8,385.8"/>
	<path fill="#575756" d="M243.7,167.4c2.7,1.1,2.5,5,3.3,7.9c8.6,12.8,18.4,26.2,19.9,44.7c-4.5-7.5-7.1-16.9-12-24
		c-2.8-3.6-5.1-7.8-7.9-12.8c-2.6-4.8-5.6-8.5-5.4-14.1c1.6-0.3,0.9,1.6,2.1,1.7C244.7,169.9,242.5,168.8,243.7,167.4"/>
	<path fill="#575756" d="M350.6,168.3c2.1,0.4,0.7,2,0.4,3.3c1.7,0.3,0.8-2,2.5-1.7c0.2,8.1-7.2,16.3-11.2,23.2
		c-0.7,1.2-0.1,3-2.1,3.3c-1.7,4.1-4.3,7.8-6.2,12c-1.9,4.2-2.8,9-5.8,12.4c1.6-18.4,11-32,19.9-44.3
		C348.5,173.3,349.3,170.5,350.6,168.3"/>
	<path fill="#575756" d="M269.4,277.6c1.7,2.9,3.5,5.6,5.8,7.9C273.7,282.7,272,278,269.4,277.6 M269.8,276
		c-0.3-3.4-3.6-3.8-5.4-5.8C264.7,273.6,267.1,275,269.8,276 M260.7,251.1c3.7,4,6,9.5,10.4,12.8
		C269.6,258.6,264.1,251.7,260.7,251.1 M266.5,242.4c0.8-1.2-0.1-3.5-1.7-3.7C264.7,240.6,266.1,241,266.5,242.4 M249.1,222.1
		c-0.8,2.9-0.6,5.1-0.4,8.3c0.1,0.5,0.8,0.3,1.2,0.4c0.3,6.4,2.8,10.7,5,15.3c-0.6,3.4-0.6,7.5,2.5,9.1c-1.2,4.2,2.5,6.5,3.7,9.5
		c-0.1,1.5-0.6,0.1-1.7,0.8v4.6c2.7-0.2,0.6-2.5,1.7-4.1c3.6-0.1,4.7,2.5,8.3,2.5c0.5-5-4.9-3.9-7.5-5.8c-1.9-1.4-1.4-3.1-3.3-4.6
		c-0.2-1.5,1.5-1,1.2-2.5c-1.7-2-5.5-5-3.7-7.9c2.1,0.2,3.1,1.6,5,2.1c1-5.4-8.5-4-7.5-10.8c1.3-0.3,0.8,1.1,2.1,0.8
		c-2.2-3.3-7-7.7-5.8-15.7c3.4-0.2,4.9,1.5,6.6,2.9c1.1,0.1,0.3-1.6,1.7-1.2c1.3,3.4,2.6,9,5,9.9c0.9-0.1,0.2,1.5,0.4,2.1
		c1.5,0.4,0.7-1.6,2.1-1.2c2,0.3,1.9,2.8,2.9,4.1c1,0.2,0.9-0.8,2.1-0.4c-2.7,2.7,2.7,5.8,2.9,9.5c-2.3,0.1-2.6-1.8-3.3-3.3
		c-1.1,0-0.8,1.4-0.8,2.5c-1.1,0.1-1.1-0.9-1.2-1.7c-1.1-1.1-2.1-2.3-2.5-4.1c-4.3-4-6-13.7-12.8-14.1c1.8,2.4,3.4,4.9,6.2,6.2
		c0.4,1.5-1.9,0.3-1.7,1.7c0,1.5,2.7,0.3,3.3,1.2c-1.9,3.4,1.2,5,2.1,7.9c0.5-0.2,0.9-0.5,0.8-1.2c0.4,1.7,2.4,1.7,2.5,3.7
		c-1.1-0.2-1.2-1.2-2.5-1.2c0.4,2.3,1.7,3.8,4.1,4.1c0.2,0.9-0.8,0.6-0.8,1.2c1,2.3,1.6,5,4.1,5.8c5.3,12.5,12,25.8,14.5,39.8
		c-2.4-4.5-4.5-9.3-5.8-14.9c-3.3-3.6-5.2-8.7-7.5-13.3c-1.6-0.2-1.9,0.9-2.5,1.7c2.1,6.3,9.9,11.8,6.6,19.5
		c-1.8-0.4-1.3-3.1-3.3-3.3c-0.7,5.1,3.9,8.6,5.4,12.8c-3.4-2.5-7.8-4.1-9.5-8.3c2.7-3.5-2.8-3.5-1.7-7.9c2.5-0.5,2.8,1.1,4.6,1.2
		c0.4-4.7-6.8-5.3-8.7-9.1c-0.4-1.6,1-1.5,1.2-2.5c-0.1-2.1-3.2-1.2-2.9-3.7c-2.1,0.9,0.4,2.4,0,4.1c-3-0.2-1.9-3.7-3.7-4.1
		c1.3-3.3-1.8-4.5-2.9-6.6c-0.3-2.1,1.5-2.3,0.4-4.1c-0.2-0.6-0.5,0.2-1.2,0c-0.5-1.8-0.1-1.8,0.4-3.3c-0.9-0.8-2.8-0.5-2.9-2.1
		c0-1.9,0.8,0.3,1.2,0.4c1.5-1.5-0.2-4.1-1.2-5.4c0.7-2.5-0.4-6-2.1-7.5c1-7.4-4.8-13.3-2.1-19.9H249.1z"/>
	<path fill="#575756" d="M319.1,320.3c-0.1-1.5,1.2-1.5,1.2-2.9C318.9,317.4,317.5,319.8,319.1,320.3 M322,311.2
		c1.1,0.4,2-2.3,0.4-2.1C322.6,310.1,321.7,310,322,311.2 M334.4,299.2c1.3,1.4,0.4,7,2.1,9.1c-0.5,0.6-2,0.2-2.1,1.2
		c0.4,1.2,1.1-0.6,1.7,0.4c-6.5,4.5-12.3,9.8-16.2,17c0-2.6,1.2-4,2.1-5.8c-4.2-0.4-3.5,6.3-5.4,8.7c-1.5,0.4-0.3-1.9-1.7-1.7
		c-1.3,2.9,2,4.5,2.1,7.5c-1,1-0.8-0.6-2.1-0.4c1.9,3.2-1.7,5.5,0.4,9.1c-2.5,0-1.6-3.3-4.1-3.3c1.3-8.4,4.5-15.7,3.3-24.4
		c-1.6,3.8-2.8,7.8-2.5,12.4c0,1.2-1.1,1.4-1.2,2.5c0.2,7.8-5.5,19.2-0.4,24c0,1.7-1.7-1.1-2.5,0.8c0.5,2.2,0.2,3.3,2.9,3.7
		c-0.6,1.3-1.4,2.5-1.7,4.1c-0.9,0.2-0.6-0.8-1.2-0.8c0.3,0.9,1.6,4.6,0,6.6c-1.4-0.5-3.7-0.1-5-0.8c-1.6-26.7,5.8-45.9-0.4-67.5
		c4,2.1,6,7.2,5.8,12c-0.5,13.6-4.8,30.6-3.7,44.3c3.2-1.9-0.1-7.8,2.1-10.4c-1.7-4.9,2.3-10,0.8-16.2c1.9-4.2,1.7-9.6,0.8-14.5
		c3-2.8,0.4-12.6,5.8-14.1c0.1,2.1,1.5,2.9,1.7,5c0.2,1.4-1.2,1.2-1.7,2.1c0.9,3.1-0.2,5.8,2.1,7c3.1-4.2,3.7-10.9,8.3-13.7
		c1.2,5.5-1,10.7-1.2,14.5c3.4-2.8,6.4-6,10.8-7.9c-1.4-1.4-2.9,0.7-4.1,0.8C331.8,307.3,333.4,303.6,334.4,299.2"/>
	<path fill="#575756" d="M289.7,357.6c0.6-0.7-0.3-2.5-0.8-3.3C288.8,355.7,288.7,357.2,289.7,357.6 M289.3,353.5
		c-1.1-0.3,0.3-3.1-1.2-2.9C288.3,351.4,288.2,354.8,289.3,353.5 M291.3,352.6c-0.2-1.5,0.7-4-1.2-3.7
		C290.2,350.5,289.9,352.5,291.3,352.6 M290.1,348.5c0.7-0.8,0.7-3.5-0.8-3.3C288.7,346.4,288.7,348.2,290.1,348.5 M287.6,347.7
		c-0.3-2.3-0.7-4.5-2.1-5.8C286.2,343.8,286.6,346,287.6,347.7 M288.9,343.5c0-4.8-1.4-9.3-2.9-14.1h-1.2
		C283.6,333.9,287.6,338.8,288.9,343.5 M289.7,358.4c-0.9,0.9,0.7,2.9,0.4,4.6c-1.3-0.6-3.2-0.6-4.1-1.7c0.6,1.4,2.5,1.4,3.3,2.5
		c-3.8-0.7-10.5-2.2-12.4-6.2c3.4,0.6,5.1,2.9,8.3,3.7c-2.5-2.7-8.6-5.5-12.4-8.3c1.3-7.6,7.2-10.5,8.7-17.8
		c2.2,1.1,2.8,3.8,3.7,6.2c0.9-4.4-3.9-6.6-3.3-12c-4.9-6.1-8.3-13.8-15.3-17.8c11.7-1.9,13.4,10.6,16.6,17.4
		c3.6-3.1-1.8-9.3-1.2-13.7c-1.2-0.3-1.1,0.6-2.1,0.4c-2.7-3.8-3.6-6.2-3.3-12c4.9,2.9,8.1,7.4,9.5,13.7c0.9,0.2,3.6,0.8,2.9,3.7
		c-1.1-0.4-0.8-2.3-2.9-1.7c1.4,3,2.3,6.5,3.7,9.5c-0.7,1.6-0.6,4.7,1.2,5c-0.9,10.3,3.5,14.6,3.3,23.2c0.1,0.5,0.8,0.4,0.8,0
		c0.1,3.5,0.4,8.9-0.4,12.4c-1.9-5-1-11.3-2.9-15.7c-1.8,5.5,1.8,9.3,0.8,15.3C290.5,366.5,291.3,360.5,289.7,358.4"/>
	<path fill="#575756" d="M264.4,386.2c2.4,1.1,3.9,0.8,6.6,1.7c-1.3,2.4-1.4,5.4-0.8,8.3c3.5-2.6,7.9-4.3,10.8-7.5
		c-0.5,3.9-4.5,4.4-5.4,7.9c-0.6-0.8-2.6-1.5-2.1,0.8c-1.7-1.6-1.8,0.2-3.3,0.8c-1.2-2.3-2.6-4.3-2.9-7.5c-0.7-0.8-1.2,0.5-2.1-0.4
		C266.2,388.6,264.4,388.1,264.4,386.2"/>
	<path fill="#575756" d="M332.4,386.2c0,1.9-1.8,2.4-0.8,4.1c-0.6,0.5-1,0.5-1.7,0c-0.9,2.8-1.9,5.6-3.3,7.9
		c-1.4-0.2-1.7-2.7-2.9-0.8c-0.6-0.1-0.3-1-0.4-1.7c-0.9-0.1-1.6,0.1-1.7,0.8c-1.5-3-5.1-4-5.8-7.9c2.7,3.2,7.3,4.5,10.4,7.5
		c1.5-2.2,0.6-6.1-0.4-8.3C328.5,387,330,387.3,332.4,386.2"/>
	<path fill="none" stroke="#575756" stroke-width="1.8" d="M333.5,84.8c0,0,93-66.1,223.9-75.9"/>
	<path fill="none" stroke="#575756" stroke-width="1.8" d="M322.5,409.4c0,0,134.1-5.8,270.9-88.5"/>
	<path fill="none" stroke="#575756" stroke-width="1.8" d="M265.8,84.8c0,0-93-66.1-223.9-75.9"/>
	<path fill="none" stroke="#575756" stroke-width="1.8" d="M279.2,409.4c0,0-135.3-5.9-272-88.6"/>
	<path fill="#575756" d="M267.5,68c-0.5-0.1-0.7,0.1-0.8,0.4c2.4,14.6,10.6,23.4,13.7,37.3c2,0.1,1.8-2.1,3.7-2.1
		c-3.9-4.7-3.7-11.9-5.8-17.8c-1.4-3.9-4.4-6.6-5-10.4C271,73.4,269.6,70.4,267.5,68"/>
	<path fill="#575756" d="M303,389.9c-1.8-0.1,0.4,1.1,0,2.1c-0.2,9.2,1.5,16.9,7.2,21.5c-0.1,0.1,0.1,0.4,1.1,0.9
		c4.9,3.1,11.5,0.1,10.4-6.6c-1.2-2.3-5.5-5.1-7-1.2c-0.1,1.7,0.8,2.3,0,3.7c-7.1-2.6-7.8-9.9-7.5-17.4c-0.5-1-2.5-0.5-2.1-2.5
		C304.3,390.2,302.8,391.7,303,389.9"/>
	<path fill="#575756" d="M285.4,123.6c2,5.4,0.3,12.3,0.8,19.5C284.1,137.7,286,130.7,285.4,123.6"/>
	<path fill="#575756" d="M285.4,148.8c-1.5,0.4-1.5,1.6-0.9,3.2C284.8,150.9,286,150.4,285.4,148.8"/>
</g>
</svg>
