<?xml version="1.0" encoding="utf-8"?>
<!-- Generator: Adobe Illustrator 18.1.1, SVG Export Plug-In . SVG Version: 6.00 Build 0)  -->
<svg version="1.1" id="Layer_1" xmlns="http://www.w3.org/2000/svg" xmlns:xlink="http://www.w3.org/1999/xlink" x="0px" y="0px"
	 viewBox="0 0 359.2 313.7" enable-background="new 0 0 359.2 313.7" xml:space="preserve">
<g>
	<g>
		<path fill="#FFFFFF" d="M203.7,47.1c-0.1-1.3-0.2-2.2-0.2-2.9c0-4.5,1.3-8.4,4-11.6c2.7-3.2,5.9-4.8,9.6-4.8c2.6,0,5,0.8,7.1,2.4
			c2.2,1.6,3.8,3.7,4.9,6.3L203.7,47.1z M229.6,50.9c-1.1,2.9-2.8,5.3-5,7.1c-2.2,1.8-4.7,2.7-7.5,2.7c-3.2,0-6-1.2-8.5-3.6
			c-2.5-2.4-4.1-5.5-4.8-9.1l28.3-11.6c-1.4-2.8-3.5-5-6.2-6.6c-2.7-1.6-5.7-2.5-8.9-2.5c-4.7,0-8.7,1.7-12.1,5
			c-3.4,3.3-5,7.4-5,12.1c0,4.7,1.7,8.7,5,12.1c3.4,3.4,7.4,5,12.1,5c3.3,0,6.3-0.9,9-2.6c2.7-1.7,4.8-4,6.2-6.8L229.6,50.9z
			 M196.8,34.3c0-1.9-0.7-3.5-2-4.9c-1.4-1.4-3-2.1-4.8-2.1c-2.9,0-5,1.3-6.3,3.9V11.7h-3.4v48.5h3.4V33.4c0.3-1.6,1-2.9,2.2-3.9
			c1.2-1,2.6-1.5,4.2-1.5c0.9,0,1.7,0.6,2.4,1.8c0.7,1.2,1.1,2.7,1.1,4.5v25.9h3.4V34.3z M177.8,11.6h-17.3v0.7h6.9v47.9h3.4V12.3
			h6.9V11.6z"/>
		<path fill="#FFFFFF" d="M304,156.6c-1.2,2.2-2.5,3.3-4.1,3.3c-1.6,0-2.9-1.1-4.1-3.3c-1.2-2.2-1.7-4.7-1.7-7.7
			c0-2.9,0.6-5.4,1.7-7.6c1.2-2.1,2.5-3.2,4.1-3.2c1.6,0,2.9,1.1,4.1,3.2c1.2,2.1,1.7,4.7,1.7,7.6
			C305.8,151.9,305.2,154.5,304,156.6 M337.4,171.6c-7-6.9-15.4-10.4-25.4-10.4c-8,0-15.2,2.4-21.6,7.3c-1.6,1.2-3,1.7-4.2,1.7
			c-2.9,0-4.4-1.5-4.4-4.4c0-2,0.9-3.6,2.8-4.8c1.8-1.2,4-1.7,6.4-1.7c1,0,2,0.1,3.2,0.3c1.7,1.1,3.5,1.6,5.7,1.6
			c3.3,0,6.1-1.2,8.5-3.6c2.4-2.4,3.6-5.3,3.6-8.7v-2.9c1.8-0.1,3.7-0.7,5.7-1.9c2.5-1.5,3.9-3.2,4.4-5.2l-5.5-2.9
			c0.2,1.7-0.2,3.5-1.2,5.4c-1.1,2.1-2.4,3.3-4.1,3.5c-1.8-5.3-5.6-8-11.4-8c-3.4,0-6.3,1.2-8.7,3.6c-2.4,2.4-3.6,5.2-3.6,8.5
			c0,3.8,1.5,6.9,4.4,9.3c-0.5-0.1-1.1-0.1-1.9-0.1c-3.1,0-6.1,0.8-9,2.5c-3.4,1.8-5.1,4.2-5.1,7c0,3.6,2,5.4,6.1,5.5
			c2.7,0.1,5.5-1,8.5-3.2c6.7-5.1,13.8-7.6,21.4-7.6c8.2,0,15.1,3.4,20.8,10.1c5.7,6.8,8.6,14.9,8.6,24.4c0,9.5-2.9,17.7-8.6,24.4
			c-5.7,6.8-12.7,10.1-20.8,10.1c-9.4,0-17.5-3.4-24.3-10.1c-6.8-6.8-10.1-14.9-10.1-24.4c0-4.7,0.9-9.2,2.8-13.7l-1.2-0.4
			c-1.9,4.4-2.9,9.1-2.9,14.1c0,9.9,3.5,18.3,10.5,25.3c7,6.9,15.4,10.4,25.2,10.4c9.9,0,18.4-3.5,25.4-10.4
			c7-6.9,10.5-15.4,10.5-25.3C347.9,187,344.4,178.6,337.4,171.6 M270.5,150.2c0-3.4-1.2-6.4-3.7-9c-2.5-2.6-5.4-3.9-8.8-3.9
			c-5.2,0-9.1,2.4-11.5,7.1v-5.7h-6.3v58.2h6.3v-48.2c0.5-2.9,1.8-5.3,3.9-7.2c2.1-1.9,4.7-2.8,7.6-2.8c1.7,0,3.1,1.1,4.4,3.4
			c1.3,2.3,2,5,2,8.1v46.8h6.1V150.2z M233.5,138.6h-6.3v58.3h6.3V138.6z M230.2,127.9c-1.9,0-2.9,1.1-2.9,3.2c0,2.1,1,3.2,2.9,3.2
			c2.2,0,3.3-1.1,3.3-3.2C233.5,128.9,232.4,127.9,230.2,127.9 M219.5,138.6l-12,49.1l-9.2-37.9l2.8-11.2h-1.3l-2,8.3l-2-8.3h-6.6
			l5.2,21.9l-6.6,27.3l-12-49.1h-6.4l15.7,65.3l9.8-40.7l9.9,40.7l16-65.3H219.5z M152.9,188.9c-4.9,5.8-10.7,8.7-17.6,8.7
			c-6.8,0-12.6-2.9-17.5-8.7c-4.9-5.8-7.3-12.9-7.3-21.1c0-8.3,2.4-15.3,7.3-21.1c4.9-5.8,10.7-8.7,17.5-8.7
			c6.9,0,12.8,2.9,17.6,8.7c4.9,5.8,7.3,12.9,7.3,21.1C160.2,176,157.8,183.1,152.9,188.9 M166.5,167.8c0-8.6-3-16-9.1-22.1
			c-6.1-6.1-13.4-9.1-22.1-9.1c-8.6,0-15.9,3-22,9.1c-6.1,6.1-9.2,13.4-9.2,22.1c0,8.6,3.1,15.9,9.2,22c6.1,6.1,13.5,9.2,22.1,9.2
			c10.3,0,18.6-4.1,24.8-12.2v10.2h6.3V167.8z M95.8,137c-3,0-5.2,1-6.7,3.1v-1.5h-6.3v58.3h6.3v-53.5c0.5-2.4,1.7-4,3.6-4.8
			c-0.6,0.8-0.9,1.6-0.9,2.3c0,2.5,1.3,3.8,3.9,3.8c2.6,0,3.9-1.3,3.9-3.8C99.7,138.3,98.4,137,95.8,137 M57.6,182.8
			c-7.5,8.5-16.7,12.8-27.5,12.8H18.2v-85.8h10.5c10.9,0,20.4,4.1,28.3,12.3c7.9,8.2,11.8,18.1,11.8,29.8
			C68.8,164,65.1,174.3,57.6,182.8 M61.4,121.1c-9.1-8.5-20-12.7-32.6-12.7H12v88.5H30c12.4,0,23-4.4,31.8-13.3
			c8.8-8.9,13.2-19.5,13.2-31.7C75.1,139.9,70.5,129.6,61.4,121.1"/>
		<path fill="#FFFFFF" d="M286.6,234.4c0-3.3-1.2-6.1-3.5-8.5c-2.4-2.4-5.1-3.5-8.3-3.5c-5.7,0-9.5,2.7-11.5,8.2
			c-1.7-5.5-5.5-8.2-11.2-8.2c-4.9,0-8.5,2.2-10.8,6.7v-5.3h-5.9v54.5h5.9v-45.4c0.5-2.6,1.7-4.8,3.7-6.6c2-1.8,4.4-2.7,7.1-2.7
			c1.6,0,3,1,4.2,3.1c1.2,2.1,1.8,4.6,1.8,7.6v43.9h5.9v-45c0.3-2.7,1.4-5,3.5-6.9c2-1.9,4.5-2.8,7.3-2.8c1.5,0,2.9,1.1,4.1,3.2
			c1.2,2.1,1.8,4.7,1.8,7.6v43.9h6V234.4z M218.2,270.8c-4.5,5.5-10,8.2-16.4,8.2c-6.4,0-11.8-2.7-16.3-8.2
			c-4.5-5.5-6.7-12-6.7-19.6c0-7.7,2.2-14.3,6.7-19.7c4.5-5.4,9.9-8.1,16.3-8.1c6.5,0,11.9,2.7,16.4,8.1c4.5,5.4,6.7,12,6.7,19.7
			C225,258.8,222.7,265.4,218.2,270.8 M222.4,230.6c-5.6-5.6-12.5-8.5-20.6-8.5c-8,0-14.8,2.8-20.5,8.5c-5.7,5.6-8.5,12.5-8.5,20.6
			c0,8,2.8,14.8,8.5,20.5c5.7,5.7,12.5,8.5,20.5,8.5c8,0,14.8-2.8,20.5-8.5c5.7-5.7,8.5-12.5,8.5-20.5
			C230.9,243.1,228,236.2,222.4,230.6 M156,270.8c-4.5,5.5-10,8.2-16.4,8.2c-6.4,0-11.8-2.7-16.3-8.2c-4.5-5.5-6.7-12-6.7-19.6
			c0-7.7,2.2-14.3,6.7-19.7c4.5-5.4,9.9-8.1,16.3-8.1c6.5,0,11.9,2.7,16.4,8.1c4.5,5.4,6.7,12,6.7,19.7
			C162.8,258.8,160.6,265.4,156,270.8 M160.3,230.6c-5.6-5.6-12.5-8.5-20.6-8.5c-8,0-14.8,2.8-20.5,8.5c-5.7,5.6-8.5,12.5-8.5,20.6
			c0,8,2.8,14.8,8.5,20.5c5.7,5.7,12.5,8.5,20.5,8.5c8,0,14.8-2.8,20.5-8.5c5.7-5.7,8.5-12.5,8.5-20.5
			C168.7,243.1,165.9,236.2,160.3,230.6 M91.3,240.8c-5.1,5-11.2,7.6-18.4,7.6h-9.7v-51.5h9.7c7.2,0,13.3,2.5,18.4,7.5
			c5.1,5,7.6,11,7.6,18.1C98.9,229.6,96.4,235.7,91.3,240.8 M136.1,284.4c-2.7-2-5.6-2.9-8.8-2.9v1.2c3,0,5.7,0.8,8,2.5
			c2.4,1.7,3.5,3.8,3.5,6.5c0,3.3-1.1,5.8-3.3,7.6c-1.8,1.5-4,2.2-6.5,2.2c-5.1,0-10.1-2-15.1-6c-5.4-4.2-9.9-10-13.6-17.4
			c-2.4-5.3-4.7-10.5-7-15.8c-3.5-6.9-7.5-11.3-12-13.1c7-1.5,12.7-5,17.2-10.5c4.2-5,6.3-10.4,6.3-16.2c0-7.5-3.1-13.8-9.3-19.2
			c-6.2-5.3-13.7-8-22.6-8H57.3v83h5.9v-28.5h9.7c7,0,12.3,4.1,15.9,12.3c2.1,6.2,4.2,12.4,6.3,18.5c7.5,15.4,18.4,23,32.6,23
			c8.3,0,12.4-4,12.4-12C140.1,288.8,138.7,286.3,136.1,284.4"/>
		<path fill="#575756" d="M317.5,74.2h-4V61h-5.4v13.2h-4.2v1.1h4.2V124h5.4V75.3h4V74.2z M254.8,103.6c-0.2-2-0.2-3.5-0.2-4.5
			c0-7.1,2.1-13.1,6.2-18.1c4.2-5,9.1-7.5,14.9-7.5c4.1,0,7.8,1.2,11.1,3.7c3.4,2.4,5.9,5.7,7.7,9.9L254.8,103.6z M295.2,109.4
			c-1.7,4.6-4.3,8.2-7.8,11c-3.4,2.8-7.3,4.2-11.6,4.2c-5,0-9.4-1.9-13.3-5.7c-3.9-3.8-6.3-8.5-7.4-14.3l44.2-18.1
			c-2.2-4.3-5.5-7.8-9.6-10.3c-4.2-2.6-8.8-3.9-13.9-3.9c-7.3,0-13.6,2.6-18.8,7.8c-5.2,5.2-7.8,11.5-7.8,18.9
			c0,7.3,2.6,13.6,7.8,18.8c5.2,5.2,11.5,7.8,18.8,7.8c5.1,0,9.8-1.4,14.1-4c4.2-2.7,7.5-6.2,9.7-10.6L295.2,109.4z M241.9,72.8
			c-2.6,0-4.5,0.9-5.7,2.6v-1.2h-5.4V124h5.4V78.3c0.4-2.1,1.5-3.4,3.1-4.1c-0.5,0.7-0.7,1.3-0.7,2c0,2.2,1.1,3.2,3.4,3.2
			c2.2,0,3.4-1.1,3.4-3.2C245.3,73.9,244.1,72.8,241.9,72.8 M221.1,109c-1.7,4.5-4.2,8.1-7.7,11c-3.5,2.8-7.3,4.2-11.6,4.2
			c-5.8,0-10.8-2.5-14.9-7.5c-4.1-5-6.2-11-6.2-18.1c0-7.1,2.1-13.1,6.2-18c4.1-4.9,9.1-7.4,14.9-7.4c4.2,0,8,1.4,11.5,4
			c3.4,2.7,6,6.3,7.7,10.8l4.2-1.9c-2.2-4.2-5.5-7.6-9.6-10.2c-4.2-2.6-8.8-3.9-13.8-3.9c-7.3,0-13.6,2.6-18.7,7.7
			c-5.2,5.1-7.8,11.4-7.8,18.8c0,7.3,2.6,13.5,7.8,18.7c5.2,5.2,11.4,7.8,18.7,7.8c5.1,0,9.8-1.3,14.1-4c4.2-2.7,7.5-6.2,9.7-10.6
			L221.1,109z M125,103.6c-0.2-2-0.3-3.5-0.3-4.5c0-7.1,2.1-13.1,6.2-18.1c4.1-5,9.1-7.5,14.9-7.5c4.1,0,7.8,1.2,11.1,3.7
			c3.4,2.4,5.9,5.7,7.7,9.9L125,103.6z M165.3,109.4c-1.7,4.6-4.3,8.2-7.8,11c-3.4,2.8-7.3,4.2-11.6,4.2c-5,0-9.4-1.9-13.3-5.7
			c-3.9-3.8-6.3-8.5-7.4-14.3l44.2-18.1c-2.2-4.3-5.5-7.8-9.6-10.3s-8.8-3.9-13.9-3.9c-7.3,0-13.6,2.6-18.8,7.8
			c-5.2,5.2-7.8,11.5-7.8,18.9c0,7.3,2.6,13.6,7.8,18.8c5.2,5.2,11.5,7.8,18.8,7.8c5.1,0,9.8-1.4,14.1-4c4.2-2.7,7.5-6.2,9.7-10.6
			L165.3,109.4z M107.9,78.4c-4.9-5.8-11-9.1-18.4-9.8c-6.1-0.6-9.1-3.9-9.1-10.1c0-3.2,0.7-5.6,2.2-7.5c1.5-1.8,3.2-2.7,5.3-2.7
			c3.2,0,5.8,1.1,8.1,3.4c2.2,2.3,3.4,5,3.4,8.2c0,1.9-0.5,3.7-1.4,5.4l0.6,0.2c1-1.8,1.5-3.7,1.5-5.7c0-3.4-1.2-6.3-3.6-8.7
			c-2.4-2.4-5.3-3.6-8.7-3.6c-3.4,0-6.3,1.2-8.6,3.6c-2.3,2.4-3.6,5.3-3.7,8.7c-0.2,3.7,1,6.7,3.5,9.2c2.5,2.5,5.9,4,10.1,4.5
			c6.1,0.7,11,3.3,14.9,7.8c3.9,4.5,5.8,10.2,5.8,17.1c0,7.1-2.2,13.1-6.5,18.1c-4.3,5-9.5,7.5-15.4,7.5c-7,0-13.1-2.5-18.5-7.6
			c-5.4-5.1-8-11.1-8-18.1c0-5.4,1.6-10.3,4.8-14.6c3.2-4.4,7.3-7.4,12.4-9.3l-0.5-1.1c-5.2,2-9.5,5.3-12.8,9.8
			c-3.3,4.6-4.9,9.6-4.9,15.2c0,7.4,2.7,13.7,8.1,18.9c5.4,5.2,11.9,7.8,19.4,7.8c7.6,0,14-2.6,19.4-7.9c5.4-5.3,8.1-11.6,8.1-18.9
			C115.3,90.9,112.8,84.2,107.9,78.4"/>
	</g>
</g>
</svg>
